<svg id="svg" version="1.1" xmlns="http://www.w3.org/2000/svg" xmlns:xlink="http://www.w3.org/1999/xlink" width="400" height="472.3631508678238" viewBox="0, 0, 400,472.3631508678238"><g id="svgg"><path id="path0" d="M180.641 131.934 C 180.200 132.069,179.040 132.155,178.061 132.125 C 177.043 132.094,176.127 132.201,175.917 132.375 C 175.682 132.570,173.542 132.730,169.952 132.822 C 161.179 133.045,159.835 133.110,159.496 133.323 C 158.877 133.712,155.015 134.255,154.693 133.997 C 154.256 133.647,152.245 133.494,152.058 133.797 C 151.974 133.933,151.603 134.045,151.235 134.045 C 150.867 134.045,150.334 134.169,150.052 134.321 C 149.769 134.472,148.727 134.660,147.737 134.739 C 146.747 134.818,145.867 134.997,145.781 135.135 C 145.695 135.274,145.212 135.376,144.708 135.361 C 144.204 135.347,143.251 135.478,142.590 135.653 C 141.929 135.829,140.668 136.031,139.786 136.104 C 138.905 136.176,138.124 136.316,138.051 136.414 C 137.720 136.858,136.151 137.331,134.313 137.543 C 133.085 137.684,132.200 137.924,132.024 138.165 C 131.866 138.381,131.002 138.676,130.105 138.821 C 129.207 138.965,128.161 139.288,127.779 139.538 C 127.252 139.884,126.942 139.928,126.493 139.724 C 126.026 139.511,125.671 139.588,124.811 140.087 C 123.402 140.904,121.376 141.511,120.945 141.245 C 120.760 141.131,120.418 141.139,120.184 141.263 C 119.951 141.388,119.438 141.557,119.044 141.640 C 118.650 141.722,118.170 141.945,117.976 142.134 C 117.469 142.628,115.410 143.658,114.929 143.658 C 114.704 143.658,113.896 143.945,113.134 144.296 C 112.372 144.647,111.449 144.997,111.081 145.072 C 110.355 145.222,107.720 146.312,107.076 146.729 C 106.304 147.229,104.104 147.900,103.721 147.753 C 103.441 147.646,103.353 147.779,103.402 148.234 C 103.456 148.723,103.325 148.884,102.814 148.957 C 102.453 149.008,102.032 149.209,101.880 149.403 C 101.727 149.597,101.061 149.936,100.401 150.156 C 99.570 150.432,99.223 150.687,99.277 150.979 C 99.332 151.272,99.153 151.402,98.692 151.402 C 98.327 151.402,97.963 151.509,97.882 151.639 C 97.801 151.770,97.414 151.957,97.021 152.056 C 96.344 152.226,95.936 152.492,93.915 154.078 C 93.444 154.449,92.607 154.957,92.056 155.209 C 91.505 155.460,91.055 155.788,91.055 155.937 C 91.055 156.086,90.891 156.208,90.690 156.208 C 90.490 156.208,90.017 156.451,89.639 156.748 C 89.262 157.045,88.806 157.255,88.626 157.215 C 88.446 157.175,88.224 157.443,88.132 157.810 C 88.041 158.178,87.700 158.597,87.374 158.742 C 87.049 158.887,86.782 159.091,86.782 159.196 C 86.782 159.301,86.358 159.589,85.839 159.835 C 85.320 160.082,84.395 160.808,83.783 161.450 C 83.171 162.092,82.515 162.617,82.323 162.617 C 82.132 162.617,81.976 162.796,81.976 163.014 C 81.976 163.232,81.465 163.730,80.841 164.120 C 79.422 165.006,73.164 171.296,73.164 171.837 C 73.164 172.057,72.448 172.959,71.573 173.842 C 70.698 174.726,69.770 175.806,69.513 176.242 C 69.255 176.679,68.886 177.036,68.694 177.036 C 68.502 177.036,68.235 177.325,68.101 177.678 C 67.966 178.031,67.740 178.391,67.598 178.479 C 67.456 178.567,67.403 178.879,67.479 179.172 C 67.556 179.466,67.511 179.706,67.379 179.706 C 67.078 179.706,63.818 183.563,63.818 183.920 C 63.818 184.065,63.562 184.250,63.249 184.332 C 62.836 184.440,62.718 184.629,62.820 185.017 C 62.907 185.348,62.470 186.503,61.678 188.037 C 60.424 190.468,58.673 193.991,56.596 198.264 C 56.026 199.439,55.306 201.171,54.998 202.113 C 54.690 203.054,54.155 204.383,53.809 205.066 C 53.463 205.748,53.049 207.252,52.888 208.407 C 52.727 209.562,52.417 210.866,52.199 211.303 C 51.981 211.740,51.802 212.372,51.802 212.707 C 51.802 213.042,51.663 213.655,51.493 214.068 C 51.323 214.481,51.088 215.481,50.971 216.288 C 50.556 219.164,49.922 222.303,49.664 222.758 C 49.520 223.011,49.324 224.585,49.229 226.254 C 49.008 230.127,49.073 230.198,52.697 229.982 L 55.140 229.837 56.268 230.932 L 57.395 232.028 62.926 232.173 C 65.967 232.253,68.504 232.367,68.563 232.426 C 68.865 232.728,70.169 231.916,70.704 231.091 L 71.315 230.151 78.989 230.229 L 86.664 230.307 87.689 231.442 L 88.714 232.577 92.206 232.577 C 96.824 232.577,97.196 232.848,97.196 236.214 C 97.196 237.425,97.326 238.755,97.484 239.168 C 97.642 239.582,97.882 241.302,98.019 242.991 C 98.350 247.111,98.654 249.241,99.161 251.007 C 99.394 251.818,99.636 253.019,99.700 253.677 C 99.801 254.716,100.039 255.720,101.187 259.947 C 101.307 260.387,101.667 261.347,101.988 262.079 C 102.309 262.811,102.752 264.359,102.972 265.519 C 103.192 266.679,103.543 267.888,103.752 268.207 C 103.961 268.526,104.360 269.441,104.639 270.241 C 104.918 271.041,105.450 272.296,105.822 273.031 C 106.193 273.765,106.581 274.846,106.683 275.434 C 106.785 276.021,107.063 276.802,107.300 277.170 C 107.537 277.537,108.187 278.714,108.743 279.785 C 109.300 280.857,110.033 282.178,110.373 282.722 C 110.713 283.266,111.296 284.380,111.667 285.198 C 112.038 286.015,112.719 287.205,113.180 287.841 C 113.641 288.478,114.019 289.197,114.019 289.439 C 114.019 289.682,114.153 290.014,114.317 290.178 C 114.481 290.342,114.751 290.707,114.917 290.990 C 115.316 291.666,116.495 293.314,118.224 295.610 C 118.995 296.634,119.626 297.537,119.626 297.618 C 119.626 298.346,130.225 309.556,132.176 310.893 C 132.837 311.345,134.219 312.481,135.247 313.416 C 136.275 314.351,137.748 315.479,138.519 315.923 C 139.291 316.367,140.074 316.871,140.258 317.043 C 141.048 317.779,143.424 319.311,145.659 320.524 C 149.779 322.761,158.460 327.091,158.837 327.097 C 159.035 327.100,159.516 327.278,159.905 327.492 C 161.283 328.247,164.101 329.298,165.287 329.499 C 165.948 329.610,167.630 330.122,169.025 330.636 C 170.421 331.150,172.704 331.839,174.099 332.167 C 175.494 332.496,177.236 332.923,177.971 333.117 C 178.705 333.311,180.207 333.607,181.308 333.776 C 182.410 333.944,184.092 334.254,185.047 334.465 C 186.001 334.676,188.465 335.022,190.521 335.235 C 192.577 335.447,194.800 335.748,195.461 335.903 C 198.124 336.529,216.363 336.965,224.833 336.605 C 229.381 336.412,235.109 335.979,242.857 335.243 C 243.591 335.173,245.394 334.933,246.862 334.709 C 248.331 334.484,250.434 334.190,251.535 334.053 C 252.637 333.917,254.619 333.627,255.941 333.409 C 257.263 333.190,259.881 332.770,261.759 332.475 C 263.638 332.180,265.552 331.750,266.013 331.520 C 266.474 331.290,267.518 331.023,268.334 330.927 C 269.149 330.832,270.532 330.473,271.407 330.130 C 272.282 329.787,273.334 329.506,273.743 329.506 C 274.153 329.506,274.942 329.329,275.495 329.113 C 276.049 328.897,276.983 328.601,277.570 328.456 C 278.977 328.109,281.829 327.087,283.321 326.396 C 283.976 326.093,284.853 325.762,285.269 325.662 C 288.606 324.857,299.574 318.930,303.738 315.681 C 304.473 315.109,305.554 314.337,306.142 313.966 C 308.776 312.302,319.092 301.122,319.092 299.930 C 319.092 299.794,319.332 299.465,319.626 299.199 C 319.920 298.933,320.160 298.560,320.160 298.370 C 320.160 298.180,320.461 297.701,320.828 297.305 C 321.195 296.908,321.495 296.458,321.495 296.304 C 321.495 296.150,321.787 295.717,322.143 295.342 C 322.499 294.967,323.265 293.578,323.845 292.256 C 324.425 290.935,325.222 289.277,325.616 288.573 C 326.010 287.868,326.609 286.487,326.947 285.502 C 327.286 284.517,327.940 282.638,328.401 281.325 C 328.862 280.012,329.243 278.691,329.247 278.388 C 329.252 278.085,329.432 277.604,329.648 277.319 C 329.864 277.034,330.040 276.547,330.040 276.237 C 330.040 275.928,330.141 275.560,330.264 275.421 C 330.387 275.281,330.634 274.446,330.813 273.565 C 330.991 272.684,331.266 271.602,331.423 271.162 C 331.914 269.789,332.691 265.842,332.560 265.396 C 332.490 265.162,332.679 264.659,332.978 264.278 C 333.468 263.655,333.536 263.098,333.653 258.706 C 333.725 256.022,333.894 253.716,334.029 253.582 C 334.177 253.433,334.175 253.079,334.024 252.681 C 333.842 252.203,333.888 251.832,334.195 251.313 C 334.522 250.759,334.565 250.306,334.391 249.270 C 334.268 248.538,334.269 246.916,334.393 245.665 C 334.516 244.414,334.660 242.430,334.713 241.255 C 334.766 240.080,334.888 238.503,334.985 237.749 C 335.280 235.447,334.069 234.484,330.639 234.297 C 329.221 234.220,327.635 234.071,327.114 233.966 C 324.852 233.509,323.561 234.548,322.977 237.294 C 322.740 238.413,323.042 238.369,315.965 238.315 C 309.471 238.265,308.945 238.171,308.945 237.068 C 308.945 236.783,308.495 236.011,307.944 235.351 L 306.943 234.151 301.398 234.232 L 295.853 234.312 295.199 235.113 C 294.824 235.573,294.541 236.271,294.536 236.750 C 294.518 238.279,294.350 238.311,286.501 238.315 C 282.570 238.316,279.298 238.258,279.231 238.184 C 279.164 238.111,279.031 237.327,278.934 236.443 C 278.667 233.987,278.973 233.869,285.441 233.940 L 290.512 233.995 291.078 233.275 C 291.542 232.685,291.606 232.377,291.430 231.565 C 291.312 231.020,291.246 230.251,291.284 229.855 C 291.321 229.460,291.161 228.768,290.928 228.317 C 290.694 227.866,290.437 226.507,290.355 225.297 C 290.273 224.087,289.970 222.356,289.681 221.450 C 289.355 220.427,289.178 219.203,289.213 218.223 C 289.254 217.074,289.123 216.360,288.729 215.599 C 288.180 214.538,287.049 211.061,287.049 210.434 C 287.049 210.245,286.761 209.516,286.408 208.813 C 286.054 208.110,285.612 206.831,285.424 205.970 C 285.235 205.110,284.805 203.960,284.467 203.416 C 284.129 202.872,283.741 201.971,283.604 201.413 C 283.203 199.785,281.673 195.686,281.032 194.526 C 280.708 193.939,280.351 193.158,280.238 192.790 C 279.999 192.011,278.881 189.416,278.464 188.673 C 278.306 188.390,277.889 187.646,277.539 187.019 C 277.189 186.392,276.903 185.675,276.903 185.425 C 276.903 185.176,276.737 184.839,276.536 184.676 C 276.334 184.513,275.718 183.538,275.166 182.510 C 274.615 181.482,273.827 180.178,273.416 179.612 C 273.004 179.047,272.732 178.416,272.811 178.211 C 272.890 178.005,272.815 177.837,272.645 177.837 C 272.475 177.837,272.163 177.423,271.952 176.917 C 271.740 176.411,271.364 175.884,271.116 175.745 C 270.868 175.606,270.296 174.834,269.845 174.030 C 268.543 171.707,266.503 169.088,263.167 165.454 C 262.644 164.885,262.216 164.314,262.216 164.185 C 262.216 164.056,260.749 162.539,258.955 160.814 C 254.225 156.265,253.784 155.869,251.135 153.792 C 249.813 152.755,248.412 151.613,248.021 151.254 C 247.631 150.895,247.233 150.601,247.137 150.601 C 247.042 150.601,246.413 150.180,245.740 149.666 C 245.067 149.152,244.403 148.732,244.266 148.732 C 244.128 148.732,243.502 148.311,242.875 147.797 C 242.247 147.283,241.638 146.862,241.520 146.862 C 241.402 146.862,240.916 146.565,240.440 146.203 C 239.964 145.840,239.087 145.433,238.490 145.299 C 237.893 145.165,236.830 144.639,236.126 144.131 C 234.608 143.034,233.207 142.323,232.563 142.323 C 232.307 142.323,231.274 141.915,230.268 141.417 C 229.261 140.918,227.568 140.249,226.505 139.930 C 225.443 139.611,224.468 139.163,224.339 138.933 C 224.211 138.704,223.939 138.574,223.735 138.645 C 223.531 138.717,223.079 138.670,222.731 138.541 C 222.383 138.412,221.662 138.252,221.129 138.185 C 220.596 138.118,219.976 137.839,219.751 137.565 C 219.495 137.253,218.804 136.996,217.902 136.876 C 217.111 136.771,216.249 136.571,215.988 136.431 C 215.726 136.291,214.938 136.122,214.235 136.056 C 213.533 135.991,212.916 135.812,212.865 135.659 C 212.814 135.506,212.371 135.381,211.879 135.381 C 211.388 135.381,210.806 135.200,210.586 134.980 C 210.334 134.728,209.658 134.575,208.764 134.568 C 207.470 134.557,205.337 134.134,204.673 133.757 C 204.526 133.673,203.745 133.626,202.937 133.651 C 202.074 133.678,201.238 133.547,200.908 133.333 C 200.514 133.077,199.023 132.933,195.872 132.848 C 192.948 132.769,191.263 132.616,191.010 132.406 C 190.709 132.156,190.081 132.159,188.169 132.418 C 185.612 132.765,182.348 132.491,182.155 131.914 C 182.049 131.595,181.732 131.599,180.641 131.934 M70.087 150.087 C 69.990 150.392,69.989 150.719,70.084 150.813 C 70.284 151.014,70.751 150.357,70.757 149.866 C 70.764 149.325,70.278 149.485,70.087 150.087 M381.041 154.882 C 381.041 155.226,381.222 155.407,381.567 155.407 C 382.160 155.407,382.053 154.744,381.421 154.502 C 381.172 154.406,381.041 154.537,381.041 154.882 M106.450 183.231 C 107.117 183.898,107.121 183.925,106.808 185.989 C 106.620 187.227,106.467 191.983,106.430 197.708 C 106.381 205.289,106.288 207.514,105.995 208.144 C 105.486 209.237,103.600 211.749,103.287 211.749 C 103.148 211.749,102.495 212.119,101.837 212.572 C 99.766 213.997,93.644 214.518,92.129 213.398 C 91.753 213.120,91.201 212.815,90.904 212.720 C 89.087 212.144,86.584 207.682,87.428 206.526 C 87.911 205.867,89.608 205.299,91.684 205.103 C 93.658 204.917,93.779 204.981,95.060 206.896 C 96.011 208.316,99.275 207.316,99.556 205.517 C 99.726 204.433,99.778 189.459,99.622 186.577 C 99.446 183.340,99.468 183.181,100.089 183.169 C 100.334 183.164,100.774 182.974,101.068 182.746 C 101.976 182.040,105.585 182.366,106.450 183.231 M121.187 183.617 C 121.792 184.011,121.807 184.100,121.601 186.205 C 120.981 192.576,121.550 203.731,122.584 205.474 C 124.210 208.212,128.471 209.112,130.994 207.251 C 133.252 205.584,133.506 204.157,133.486 193.243 C 133.467 182.556,133.301 182.970,137.421 183.486 C 140.008 183.810,140.840 184.254,140.551 185.158 C 140.391 185.658,140.338 187.830,140.189 199.957 C 140.165 201.916,140.204 203.578,140.277 203.650 C 140.349 203.723,140.181 204.283,139.903 204.895 C 139.625 205.507,139.395 206.275,139.392 206.601 C 139.383 207.491,138.344 209.311,137.480 209.949 C 137.059 210.260,136.716 210.672,136.716 210.865 C 136.716 211.057,136.484 211.215,136.201 211.215 C 135.918 211.215,135.464 211.485,135.191 211.816 C 134.124 213.112,131.192 214.668,130.557 214.275 C 130.444 214.205,129.650 214.309,128.794 214.507 C 126.204 215.103,121.609 214.107,120.438 212.697 C 120.249 212.469,119.939 212.283,119.749 212.283 C 119.011 212.283,116.517 209.106,115.821 207.278 C 114.822 204.654,114.793 204.318,114.676 193.808 L 114.570 184.211 115.323 183.475 C 116.174 182.643,119.827 182.731,121.187 183.617 M161.549 183.438 C 163.566 183.809,166.084 184.985,167.677 186.301 C 168.266 186.787,167.555 188.404,166.164 189.741 C 164.335 191.499,163.747 191.563,161.513 190.254 C 158.181 188.301,154.606 189.256,154.606 192.097 C 154.606 194.002,156.099 195.081,160.515 196.365 C 161.342 196.606,162.459 197.102,162.997 197.467 C 163.535 197.832,164.102 198.131,164.257 198.131 C 164.685 198.131,166.974 200.577,167.388 201.477 C 167.588 201.913,167.859 202.478,167.988 202.733 C 168.304 203.353,168.292 207.938,167.974 208.134 C 167.668 208.323,166.889 209.849,166.889 210.259 C 166.889 210.906,164.347 213.175,162.910 213.811 C 159.652 215.254,155.570 215.612,152.935 214.686 C 152.099 214.393,151.165 214.152,150.860 214.152 C 150.183 214.152,147.261 212.211,147.029 211.606 C 146.576 210.425,146.867 209.790,148.644 208.091 C 150.729 206.096,151.121 206.067,153.339 207.746 C 156.375 210.044,160.757 209.243,161.383 206.275 C 161.722 204.672,158.303 201.763,155.674 201.417 C 152.760 201.033,148.980 198.204,148.096 195.745 C 145.837 189.462,150.268 183.554,157.349 183.406 C 158.197 183.389,158.958 183.265,159.041 183.131 C 159.123 182.998,159.391 182.952,159.635 183.029 C 159.880 183.106,160.741 183.290,161.549 183.438 M187.850 184.647 C 197.550 184.832,197.880 184.960,197.454 188.370 C 197.134 190.930,196.893 191.067,193.418 190.653 C 189.322 190.166,187.540 190.793,187.842 192.615 C 188.437 196.219,188.331 214.347,187.710 215.095 C 187.289 215.602,182.367 215.314,181.923 214.757 C 181.685 214.458,181.634 212.368,181.722 206.577 C 181.985 189.270,182.180 190.670,179.497 190.623 C 178.510 190.605,177.283 190.567,176.769 190.538 C 176.255 190.509,175.294 190.575,174.633 190.685 C 173.027 190.953,172.860 190.718,172.678 187.940 C 172.534 185.755,172.562 185.588,173.175 184.926 L 173.825 184.226 177.233 184.367 C 179.107 184.445,183.885 184.571,187.850 184.647 M208.430 185.822 C 209.117 186.592,209.120 186.622,209.131 191.362 C 209.155 201.180,208.919 215.202,208.729 215.392 C 208.153 215.968,203.877 215.942,203.257 215.358 L 202.643 214.780 202.674 204.920 C 202.691 199.497,202.713 194.820,202.723 194.526 C 202.733 194.232,202.713 192.345,202.678 190.331 C 202.598 185.708,202.765 185.391,205.368 185.245 C 206.307 185.193,207.225 185.126,207.408 185.098 C 207.590 185.070,208.050 185.395,208.430 185.822 M224.646 186.010 C 225.689 186.534,226.245 187.180,227.148 188.919 C 227.529 189.653,228.336 190.915,228.941 191.722 C 229.547 192.530,230.333 193.767,230.690 194.471 C 231.046 195.175,231.617 196.030,231.959 196.372 C 232.588 197.001,233.912 198.843,233.912 199.089 C 233.912 199.914,236.913 203.533,237.432 203.333 C 238.383 202.968,238.465 202.260,238.460 194.378 L 238.455 186.634 239.188 186.354 C 242.743 184.997,245.129 185.984,244.973 188.749 C 244.919 189.723,244.812 194.186,244.735 198.665 C 244.395 218.636,244.889 216.807,240.053 216.006 C 239.246 215.872,238.304 215.716,237.960 215.659 C 236.987 215.498,235.943 214.590,235.623 213.626 C 235.463 213.144,235.068 212.551,234.745 212.307 C 234.422 212.063,233.706 210.907,233.154 209.737 C 231.859 206.995,230.679 204.842,230.174 204.299 C 229.449 203.520,227.278 200.587,226.858 199.819 C 226.139 198.504,225.698 198.091,224.922 198.003 C 223.682 197.863,223.535 198.197,223.484 201.287 C 223.424 204.870,223.423 204.332,223.506 210.031 C 223.595 216.125,223.651 216.021,220.241 216.021 C 217.171 216.021,217.115 215.941,217.249 211.749 C 217.302 210.060,217.398 204.112,217.462 198.531 C 217.526 192.951,217.588 188.070,217.601 187.686 C 217.666 185.687,221.966 184.664,224.646 186.010 M114.474 230.608 C 117.643 230.782,117.704 230.827,117.785 233.057 C 117.867 235.327,117.526 235.593,114.820 235.368 C 113.718 235.277,112.457 235.215,112.016 235.230 C 104.564 235.489,101.608 235.473,101.418 235.175 C 101.069 234.624,101.164 231.071,101.536 230.762 C 102.171 230.235,106.712 230.181,114.474 230.608 M147.461 231.541 C 148.367 231.997,148.429 233.697,147.601 235.351 L 147.081 236.389 144.235 236.163 C 142.669 236.038,139.286 235.960,136.716 235.988 L 132.043 236.040 131.709 235.323 C 131.305 234.456,131.275 232.609,131.648 231.628 L 131.920 230.911 139.325 231.042 C 144.868 231.140,146.913 231.266,147.461 231.541 M177.449 232.431 C 177.907 232.925,178.038 233.379,178.023 234.409 C 177.988 236.727,177.120 236.903,167.771 236.495 C 165.255 236.385,163.446 236.419,163.009 236.585 C 161.943 236.991,161.302 236.084,161.291 234.154 C 161.276 231.783,161.223 231.802,168.106 231.695 C 175.944 231.572,176.709 231.633,177.449 232.431 M202.575 232.420 C 207.280 232.449,207.628 232.636,207.343 234.975 C 207.100 236.975,207.315 236.894,201.960 237.021 C 199.340 237.083,196.295 237.178,195.194 237.231 C 191.727 237.398,191.174 237.054,190.853 234.533 C 190.588 232.462,191.581 232.007,195.861 232.238 C 197.477 232.326,200.498 232.407,202.575 232.420 M228.838 232.934 C 236.404 233.042,236.844 233.144,236.847 234.783 C 236.848 235.336,236.738 235.997,236.602 236.252 C 236.465 236.507,236.291 236.921,236.214 237.172 C 236.032 237.763,221.750 237.771,221.039 237.180 C 219.791 236.144,220.654 232.238,222.021 232.739 C 222.172 232.795,225.240 232.883,228.838 232.934 M265.539 234.084 C 266.313 235.143,266.141 237.059,265.199 237.847 C 264.430 238.491,264.626 238.488,253.433 238.058 C 250.434 237.943,249.734 237.489,249.627 235.592 C 249.496 233.282,250.195 233.141,260.881 233.310 C 265.019 233.376,265.020 233.376,265.539 234.084 M156.654 251.809 C 162.330 253.248,165.300 255.454,163.885 257.181 C 162.025 259.452,159.534 260.422,158.105 259.432 C 157.560 259.054,157.019 258.745,156.902 258.745 C 156.785 258.745,156.311 258.571,155.848 258.359 C 155.385 258.147,154.343 257.856,153.532 257.712 C 152.721 257.568,151.940 257.419,151.797 257.380 C 149.435 256.743,142.666 261.419,143.256 263.280 C 143.337 263.535,143.224 263.892,143.005 264.073 C 142.347 264.619,142.466 269.239,143.173 270.619 C 143.477 271.211,143.830 271.904,143.959 272.159 C 144.087 272.414,144.192 272.805,144.192 273.027 C 144.192 273.249,144.289 273.431,144.407 273.431 C 144.525 273.431,145.096 273.867,145.675 274.400 C 148.187 276.710,151.297 277.435,155.154 276.608 C 159.340 275.710,159.391 270.043,155.208 270.618 C 152.824 270.946,150.747 267.255,152.295 265.442 C 152.494 265.210,152.734 264.800,152.830 264.530 C 153.115 263.731,162.041 264.026,163.834 264.894 L 165.091 265.502 164.909 267.397 C 164.671 269.891,164.664 276.469,164.897 278.648 C 165.069 280.247,165.044 280.374,164.558 280.374 C 164.270 280.374,163.817 280.614,163.551 280.908 C 163.286 281.202,162.853 281.442,162.591 281.442 C 162.329 281.442,162.044 281.555,161.959 281.694 C 161.873 281.832,161.235 282.018,160.541 282.108 C 159.847 282.197,159.085 282.375,158.847 282.504 C 155.196 284.478,145.082 282.998,142.008 280.040 C 141.741 279.783,141.361 279.573,141.164 279.573 C 139.929 279.573,137.024 274.937,136.037 271.389 C 135.144 268.183,136.067 260.625,137.530 259.159 C 137.670 259.019,137.784 258.749,137.784 258.558 C 137.784 258.367,137.994 257.988,138.251 257.714 C 138.508 257.441,139.052 256.783,139.460 256.251 C 142.598 252.159,150.244 250.184,156.654 251.809 M193.347 252.695 C 197.828 254.189,202.058 258.335,202.561 261.724 C 202.656 262.362,202.924 263.184,203.158 263.551 C 203.629 264.292,203.677 271.438,203.217 272.316 C 203.088 272.562,202.800 273.186,202.576 273.702 C 201.297 276.662,201.165 276.874,199.534 278.565 C 195.778 282.459,193.113 283.633,187.850 283.712 C 184.002 283.769,181.638 283.310,179.880 282.165 C 179.124 281.672,178.084 281.015,177.570 280.705 C 175.169 279.255,172.376 275.046,171.593 271.696 C 171.232 270.154,171.464 263.227,171.894 262.685 C 172.040 262.501,172.313 261.869,172.500 261.282 C 173.654 257.657,178.191 253.144,180.691 253.136 C 180.957 253.135,181.527 252.951,181.957 252.726 C 184.109 251.604,190.029 251.588,193.347 252.695 M225.302 253.268 C 225.962 253.637,226.611 253.939,226.743 253.939 C 226.875 253.939,227.584 254.387,228.319 254.936 C 229.992 256.185,229.942 256.974,228.086 258.609 C 225.630 260.772,225.149 260.950,224.166 260.063 C 222.508 258.570,219.439 258.176,217.914 259.262 C 216.782 260.068,215.717 262.750,216.529 262.750 C 216.661 262.750,217.394 263.171,218.158 263.685 C 218.921 264.199,219.728 264.619,219.950 264.619 C 220.172 264.619,221.487 265.160,222.873 265.821 C 224.259 266.482,225.519 267.023,225.672 267.023 C 226.198 267.023,229.029 270.094,229.240 270.895 C 229.548 272.059,229.630 276.610,229.347 276.785 C 229.214 276.867,229.102 277.197,229.097 277.519 C 229.089 278.073,228.964 278.300,227.839 279.796 C 225.142 283.384,220.262 284.752,214.915 283.420 C 214.086 283.213,213.139 283.044,212.811 283.044 C 212.257 283.044,209.153 281.141,208.779 280.572 C 208.276 279.806,209.350 277.830,211.078 276.344 C 211.923 275.617,213.641 275.497,214.303 276.118 C 214.606 276.403,214.980 276.636,215.135 276.636 C 215.289 276.636,215.751 276.900,216.161 277.222 C 217.650 278.393,222.616 277.593,222.736 276.163 C 222.960 273.495,221.467 271.787,218.024 270.773 C 214.306 269.678,210.414 267.162,210.414 265.853 C 210.414 265.651,210.220 265.325,209.983 265.128 C 209.217 264.493,209.569 258.922,210.471 257.382 C 212.862 253.302,221.217 250.984,225.302 253.268 M251.231 253.410 C 251.871 253.701,252.619 253.939,252.894 253.939 C 253.591 253.939,256.075 256.510,256.073 257.229 C 256.071 257.807,253.286 260.381,252.464 260.565 C 252.257 260.612,251.284 260.267,250.303 259.798 C 248.370 258.876,245.549 258.815,244.598 259.675 C 244.374 259.877,243.861 260.168,243.457 260.322 C 242.646 260.630,242.600 260.827,243.002 262.272 C 243.345 263.507,244.320 264.223,246.809 265.065 C 247.857 265.419,248.898 265.870,249.123 266.065 C 249.348 266.261,250.013 266.575,250.601 266.763 C 259.898 269.738,257.153 282.977,246.996 284.148 C 245.117 284.365,242.104 284.225,241.534 283.894 C 241.394 283.813,240.916 283.706,240.473 283.658 C 238.698 283.463,235.240 281.053,235.256 280.022 C 235.295 277.670,239.476 275.284,241.194 276.635 C 244.367 279.131,249.399 278.112,249.399 274.973 C 249.399 273.984,247.151 271.829,246.119 271.829 C 245.884 271.829,245.624 271.718,245.540 271.583 C 245.457 271.447,244.602 271.075,243.642 270.756 C 240.233 269.621,237.964 268.023,236.854 265.975 C 236.090 264.565,235.855 259.899,236.515 259.239 C 236.699 259.055,236.849 258.706,236.849 258.462 C 236.849 257.205,240.595 254.223,243.124 253.466 C 245.678 252.702,249.609 252.675,251.231 253.410 M274.932 254.035 C 284.628 254.157,284.299 254.040,284.012 257.245 C 283.746 260.204,283.828 260.171,277.230 259.958 C 272.051 259.791,271.767 259.808,270.914 260.335 C 269.158 261.420,269.266 265.154,271.054 265.154 C 271.316 265.154,271.605 265.274,271.696 265.421 C 271.791 265.574,273.244 265.691,275.116 265.696 C 281.387 265.713,283.556 266.367,283.170 268.124 C 283.083 268.522,283.004 269.345,282.996 269.953 C 282.970 271.807,282.601 271.909,277.152 271.553 C 270.091 271.093,269.486 271.370,269.650 274.985 C 269.742 277.009,269.805 277.225,270.364 277.438 C 270.701 277.566,271.055 277.798,271.151 277.954 C 271.266 278.140,273.334 278.238,277.162 278.238 L 282.997 278.238 283.721 279.098 C 284.694 280.255,284.360 284.883,283.348 284.270 C 283.254 284.214,280.414 284.089,277.036 283.993 C 273.658 283.897,270.572 283.756,270.178 283.681 C 269.784 283.605,268.491 283.686,267.305 283.859 C 262.991 284.490,263.262 285.554,263.445 268.699 L 263.589 255.407 264.495 254.544 C 265.195 253.879,265.572 253.710,266.146 253.807 C 266.555 253.877,270.508 253.979,274.932 254.035 M306.193 254.683 C 308.133 255.467,308.818 255.892,309.464 256.712 C 310.330 257.814,310.553 259.012,309.890 259.012 C 309.676 259.012,309.285 259.232,309.022 259.500 C 308.760 259.768,308.118 260.305,307.595 260.693 L 306.646 261.399 304.778 260.639 C 301.193 259.180,299.852 259.229,298.061 260.883 C 296.146 262.651,296.997 264.432,300.351 265.676 C 301.835 266.227,304.110 267.231,304.673 267.584 C 304.893 267.722,305.474 268.018,305.964 268.243 C 309.282 269.764,311.406 275.788,309.630 278.638 C 309.447 278.932,309.222 279.473,309.130 279.840 C 308.089 284.015,299.322 286.553,294.026 284.212 C 293.236 283.864,292.455 283.573,292.290 283.567 C 291.596 283.541,289.960 281.747,289.829 280.869 C 289.712 280.074,289.858 279.801,291.137 278.438 C 292.908 276.551,293.167 276.534,296.218 278.104 C 300.409 280.261,303.605 279.193,303.605 275.635 C 303.605 274.238,301.719 272.264,300.326 272.204 C 299.999 272.189,299.346 271.979,298.877 271.736 C 298.408 271.494,297.806 271.295,297.539 271.295 C 296.217 271.295,291.322 267.721,291.322 266.755 C 291.322 266.520,291.194 266.200,291.037 266.044 C 290.517 265.523,290.386 261.714,290.857 260.778 C 291.087 260.321,291.556 259.348,291.899 258.616 C 293.949 254.248,300.590 252.420,306.193 254.683 M391.977 256.223 C 391.736 256.513,391.721 256.714,391.924 256.917 C 392.266 257.260,392.790 256.992,392.790 256.475 C 392.790 255.905,392.354 255.769,391.977 256.223 M183.838 258.485 C 183.576 258.775,183.131 259.012,182.848 259.012 C 182.048 259.012,179.274 261.941,179.042 263.030 C 178.934 263.537,178.661 264.162,178.435 264.418 C 177.779 265.162,178.147 269.824,179.011 271.710 C 182.573 279.491,193.053 279.174,196.239 271.190 L 197.151 268.905 196.811 266.624 C 196.266 262.960,194.756 260.740,191.500 258.817 C 189.881 257.862,184.610 257.633,183.838 258.485 M384.541 324.143 C 384.084 324.432,384.345 325.234,  " stroke="none" fill="#fb8721" fill-rule="evenodd"></path></g></svg>