<?xml version="1.0" encoding="UTF-8" standalone="no"?>
<!DOCTYPE svg PUBLIC "-//W3C//DTD SVG 1.1//EN" "http://www.w3.org/Graphics/SVG/1.1/DTD/svg11.dtd">
<!-- <svg version="1.1" xmlns="http://www.w3.org/2000/svg" xmlns:xlink="http://www.w3.org/1999/xlink" preserveAspectRatio="xMidYMid meet" viewBox="344.5639097744361 330.27819548872174 111.73684210526318 91.21804511278197" width="53.87" height="43.61"><defs><path d="M453.3 331.28L453.3 359.85L388.64 418.5L388.64 388.42L453.3 331.28Z" id="aFZf6T5ED"></path><linearGradient id="gradientb2ThqnP5Op" gradientUnits="userSpaceOnUse" x1="420.97" y1="331.28" x2="420.97" y2="418.5"><stop style="stop-color: #FB923C;stop-opacity: 1" offset="0%"></stop><stop style="stop-color: #FB923C;stop-opacity: 1" offset="100%"></stop></linearGradient><path d="M410.23 331.28L410.23 359.85L345.56 418.5L345.56 388.42L410.23 331.28Z" id="a9fehgwfM"></path><linearGradient id="gradientk1wNV9Ostb" gradientUnits="userSpaceOnUse" x1="377.89" y1="331.28" x2="377.89" y2="418.5"><stop style="stop-color: #FB923C;stop-opacity: 1" offset="0%"></stop><stop style="stop-color: #FB923C;stop-opacity: 1" offset="100%"></stop></linearGradient></defs><g><g><use xlink:href="#aFZf6T5ED" opacity="1" fill="url(#gradientb2ThqnP5Op)"></use></g><g><use xlink:href="#a9fehgwfM" opacity="1" fill="url(#gradientk1wNV9Ostb)"></use></g></g></svg> -->
<svg id="svg" version="1.1" xmlns="http://www.w3.org/2000/svg" xmlns:xlink="http://www.w3.org/1999/xlink" width="60" height="75" viewBox="0, 0, 400,472.3631508678238"><g id="svgg"><path id="path0" d="M180.641 131.934 C 180.200 132.069,179.040 132.155,178.061 132.125 C 177.043 132.094,176.127 132.201,175.917 132.375 C 175.682 132.570,173.542 132.730,169.952 132.822 C 161.179 133.045,159.835 133.110,159.496 133.323 C 158.877 133.712,155.015 134.255,154.693 133.997 C 154.256 133.647,152.245 133.494,152.058 133.797 C 151.974 133.933,151.603 134.045,151.235 134.045 C 150.867 134.045,150.334 134.169,150.052 134.321 C 149.769 134.472,148.727 134.660,147.737 134.739 C 146.747 134.818,145.867 134.997,145.781 135.135 C 145.695 135.274,145.212 135.376,144.708 135.361 C 144.204 135.347,143.251 135.478,142.590 135.653 C 141.929 135.829,140.668 136.031,139.786 136.104 C 138.905 136.176,138.124 136.316,138.051 136.414 C 137.720 136.858,136.151 137.331,134.313 137.543 C 133.085 137.684,132.200 137.924,132.024 138.165 C 131.866 138.381,131.002 138.676,130.105 138.821 C 129.207 138.965,128.161 139.288,127.779 139.538 C 127.252 139.884,126.942 139.928,126.493 139.724 C 126.026 139.511,125.671 139.588,124.811 140.087 C 123.402 140.904,121.376 141.511,120.945 141.245 C 120.760 141.131,120.418 141.139,120.184 141.263 C 119.951 141.388,119.438 141.557,119.044 141.640 C 118.650 141.722,118.170 141.945,117.976 142.134 C 117.469 142.628,115.410 143.658,114.929 143.658 C 114.704 143.658,113.896 143.945,113.134 144.296 C 112.372 144.647,111.449 144.997,111.081 145.072 C 110.355 145.222,107.720 146.312,107.076 146.729 C 106.304 147.229,104.104 147.900,103.721 147.753 C 103.441 147.646,103.353 147.779,103.402 148.234 C 103.456 148.723,103.325 148.884,102.814 148.957 C 102.453 149.008,102.032 149.209,101.880 149.403 C 101.727 149.597,101.061 149.936,100.401 150.156 C 99.570 150.432,99.223 150.687,99.277 150.979 C 99.332 151.272,99.153 151.402,98.692 151.402 C 98.327 151.402,97.963 151.509,97.882 151.639 C 97.801 151.770,97.414 151.957,97.021 152.056 C 96.344 152.226,95.936 152.492,93.915 154.078 C 93.444 154.449,92.607 154.957,92.056 155.209 C 91.505 155.460,91.055 155.788,91.055 155.937 C 91.055 156.086,90.891 156.208,90.690 156.208 C 90.490 156.208,90.017 156.451,89.639 156.748 C 89.262 157.045,88.806 157.255,88.626 157.215 C 88.446 157.175,88.224 157.443,88.132 157.810 C 88.041 158.178,87.700 158.597,87.374 158.742 C 87.049 158.887,86.782 159.091,86.782 159.196 C 86.782 159.301,86.358 159.589,85.839 159.835 C 85.320 160.082,84.395 160.808,83.783 161.450 C 83.171 162.092,82.515 162.617,82.323 162.617 C 82.132 162.617,81.976 162.796,81.976 163.014 C 81.976 163.232,81.465 163.730,80.841 164.120 C 79.422 165.006,73.164 171.296,73.164 171.837 C 73.164 172.057,72.448 172.959,71.573 173.842 C 70.698 174.726,69.770 175.806,69.513 176.242 C 69.255 176.679,68.886 177.036,68.694 177.036 C 68.502 177.036,68.235 177.325,68.101 177.678 C 67.966 178.031,67.740 178.391,67.598 178.479 C 67.456 178.567,67.403 178.879,67.479 179.172 C 67.556 179.466,67.511 179.706,67.379 179.706 C 67.078 179.706,63.818 183.563,63.818 183.920 C 63.818 184.065,63.562 184.250,63.249 184.332 C 62.836 184.440,62.718 184.629,62.820 185.017 C 62.907 185.348,62.470 186.503,61.678 188.037 C 60.424 190.468,58.673 193.991,56.596 198.264 C 56.026 199.439,55.306 201.171,54.998 202.113 C 54.690 203.054,54.155 204.383,53.809 205.066 C 53.463 205.748,53.049 207.252,52.888 208.407 C 52.727 209.562,52.417 210.866,52.199 211.303 C 51.981 211.740,51.802 212.372,51.802 212.707 C 51.802 213.042,51.663 213.655,51.493 214.068 C 51.323 214.481,51.088 215.481,50.971 216.288 C 50.556 219.164,49.922 222.303,49.664 222.758 C 49.520 223.011,49.324 224.585,49.229 226.254 C 49.008 230.127,49.073 230.198,52.697 229.982 L 55.140 229.837 56.268 230.932 L 57.395 232.028 62.926 232.173 C 65.967 232.253,68.504 232.367,68.563 232.426 C 68.865 232.728,70.169 231.916,70.704 231.091 L 71.315 230.151 78.989 230.229 L 86.664 230.307 87.689 231.442 L 88.714 232.577 92.206 232.577 C 96.824 232.577,97.196 232.848,97.196 236.214 C 97.196 237.425,97.326 238.755,97.484 239.168 C 97.642 239.582,97.882 241.302,98.019 242.991 C 98.350 247.111,98.654 249.241,99.161 251.007 C 99.394 251.818,99.636 253.019,99.700 253.677 C 99.801 254.716,100.039 255.720,101.187 259.947 C 101.307 260.387,101.667 261.347,101.988 262.079 C 102.309 262.811,102.752 264.359,102.972 265.519 C 103.192 266.679,103.543 267.888,103.752 268.207 C 103.961 268.526,104.360 269.441,104.639 270.241 C 104.918 271.041,105.450 272.296,105.822 273.031 C 106.193 273.765,106.581 274.846,106.683 275.434 C 106.785 276.021,107.063 276.802,107.300 277.170 C 107.537 277.537,108.187 278.714,108.743 279.785 C 109.300 280.857,110.033 282.178,110.373 282.722 C 110.713 283.266,111.296 284.380,111.667 285.198 C 112.038 286.015,112.719 287.205,113.180 287.841 C 113.641 288.478,114.019 289.197,114.019 289.439 C 114.019 289.682,114.153 290.014,114.317 290.178 C 114.481 290.342,114.751 290.707,114.917 290.990 C 115.316 291.666,116.495 293.314,118.224 295.610 C 118.995 296.634,119.626 297.537,119.626 297.618 C 119.626 298.346,130.225 309.556,132.176 310.893 C 132.837 311.345,134.219 312.481,135.247 313.416 C 136.275 314.351,137.748 315.479,138.519 315.923 C 139.291 316.367,140.074 316.871,140.258 317.043 C 141.048 317.779,143.424 319.311,145.659 320.524 C 149.779 322.761,158.460 327.091,158.837 327.097 C 159.035 327.100,159.516 327.278,159.905 327.492 C 161.283 328.247,164.101 329.298,165.287 329.499 C 165.948 329.610,167.630 330.122,169.025 330.636 C 170.421 331.150,172.704 331.839,174.099 332.167 C 175.494 332.496,177.236 332.923,177.971 333.117 C 178.705 333.311,180.207 333.607,181.308 333.776 C 182.410 333.944,184.092 334.254,185.047 334.465 C 186.001 334.676,188.465 335.022,190.521 335.235 C 192.577 335.447,194.800 335.748,195.461 335.903 C 198.124 336.529,216.363 336.965,224.833 336.605 C 229.381 336.412,235.109 335.979,242.857 335.243 C 243.591 335.173,245.394 334.933,246.862 334.709 C 248.331 334.484,250.434 334.190,251.535 334.053 C 252.637 333.917,254.619 333.627,255.941 333.409 C 257.263 333.190,259.881 332.770,261.759 332.475 C 263.638 332.180,265.552 331.750,266.013 331.520 C 266.474 331.290,267.518 331.023,268.334 330.927 C 269.149 330.832,270.532 330.473,271.407 330.130 C 272.282 329.787,273.334 329.506,273.743 329.506 C 274.153 329.506,274.942 329.329,275.495 329.113 C 276.049 328.897,276.983 328.601,277.570 328.456 C 278.977 328.109,281.829 327.087,283.321 326.396 C 283.976 326.093,284.853 325.762,285.269 325.662 C 288.606 324.857,299.574 318.930,303.738 315.681 C 304.473 315.109,305.554 314.337,306.142 313.966 C 308.776 312.302,319.092 301.122,319.092 299.930 C 319.092 299.794,319.332 299.465,319.626 299.199 C 319.920 298.933,320.160 298.560,320.160 298.370 C 320.160 298.180,320.461 297.701,320.828 297.305 C 321.195 296.908,321.495 296.458,321.495 296.304 C 321.495 296.150,321.787 295.717,322.143 295.342 C 322.499 294.967,323.265 293.578,323.845 292.256 C 324.425 290.935,325.222 289.277,325.616 288.573 C 326.010 287.868,326.609 286.487,326.947 285.502 C 327.286 284.517,327.940 282.638,328.401 281.325 C 328.862 280.012,329.243 278.691,329.247 278.388 C 329.252 278.085,329.432 277.604,329.648 277.319 C 329.864 277.034,330.040 276.547,330.040 276.237 C 330.040 275.928,330.141 275.560,330.264 275.421 C 330.387 275.281,330.634 274.446,330.813 273.565 C 330.991 272.684,331.266 271.602,331.423 271.162 C 331.914 269.789,332.691 265.842,332.560 265.396 C 332.490 265.162,332.679 264.659,332.978 264.278 C 333.468 263.655,333.536 263.098,333.653 258.706 C 333.725 256.022,333.894 253.716,334.029 253.582 C 334.177 253.433,334.175 253.079,334.024 252.681 C 333.842 252.203,333.888 251.832,334.195 251.313 C 334.522 250.759,334.565 250.306,334.391 249.270 C 334.268 248.538,334.269 246.916,334.393 245.665 C 334.516 244.414,334.660 242.430,334.713 241.255 C 334.766 240.080,334.888 238.503,334.985 237.749 C 335.280 235.447,334.069 234.484,330.639 234.297 C 329.221 234.220,327.635 234.071,327.114 233.966 C 324.852 233.509,323.561 234.548,322.977 237.294 C 322.740 238.413,323.042 238.369,315.965 238.315 C 309.471 238.265,308.945 238.171,308.945 237.068 C 308.945 236.783,308.495 236.011,307.944 235.351 L 306.943 234.151 301.398 234.232 L 295.853 234.312 295.199 235.113 C 294.824 235.573,294.541 236.271,294.536 236.750 C 294.518 238.279,294.350 238.311,286.501 238.315 C 282.570 238.316,279.298 238.258,279.231 238.184 C 279.164 238.111,279.031 237.327,278.934 236.443 C 278.667 233.987,278.973 233.869,285.441 233.940 L 290.512 233.995 291.078 233.275 C 291.542 232.685,291.606 232.377,291.430 231.565 C 291.312 231.020,291.246 230.251,291.284 229.855 C 291.321 229.460,291.161 228.768,290.928 228.317 C 290.694 227.866,290.437 226.507,290.355 225.297 C 290.273 224.087,289.970 222.356,289.681 221.450 C 289.355 220.427,289.178 219.203,289.213 218.223 C 289.254 217.074,289.123 216.360,288.729 215.599 C 288.180 214.538,287.049 211.061,287.049 210.434 C 287.049 210.245,286.761 209.516,286.408 208.813 C 286.054 208.110,285.612 206.831,285.424 205.970 C 285.235 205.110,284.805 203.960,284.467 203.416 C 284.129 202.872,283.741 201.971,283.604 201.413 C 283.203 199.785,281.673 195.686,281.032 194.526 C 280.708 193.939,280.351 193.158,280.238 192.790 C 279.999 192.011,278.881 189.416,278.464 188.673 C 278.306 188.390,277.889 187.646,277.539 187.019 C 277.189 186.392,276.903 185.675,276.903 185.425 C 276.903 185.176,276.737 184.839,276.536 184.676 C 276.334 184.513,275.718 183.538,275.166 182.510 C 274.615 181.482,273.827 180.178,273.416 179.612 C 273.004 179.047,272.732 178.416,272.811 178.211 C 272.890 178.005,272.815 177.837,272.645 177.837 C 272.475 177.837,272.163 177.423,271.952 176.917 C 271.740 176.411,271.364 175.884,271.116 175.745 C 270.868 175.606,270.296 174.834,269.845 174.030 C 268.543 171.707,266.503 169.088,
263.167 165.454 C 262.644 164.885,262.216 164.314,262.216 164.185 C 262.216 164.056,260.749 162.539,258.955 160.814 C 254.225 156.265,253.784 155.869,251.135 153.792 C 249.813 152.755,248.412 151.613,248.021 151.254 C 247.631 150.895,247.233 150.601,247.137 150.601 C 247.042 150.601,246.413 150.180,245.740 149.666 C 245.067 149.152,244.403 148.732,244.266 148.732 C 244.128 148.732,243.502 148.311,242.875 147.797 C 242.247 147.283,241.638 146.862,241.520 146.862 C 241.402 146.862,240.916 146.565,240.440 146.203 C 239.964 145.840,239.087 145.433,238.490 145.299 C 237.893 145.165,236.830 144.639,236.126 144.131 C 234.608 143.034,233.207 142.323,232.563 142.323 C 232.307 142.323,231.274 141.915,230.268 141.417 C 229.261 140.918,227.568 140.249,226.505 139.930 C 225.443 139.611,224.468 139.163,224.339 138.933 C 224.211 138.704,223.939 138.574,223.735 138.645 C 223.531 138.717,223.079 138.670,222.731 138.541 C 222.383 138.412,221.662 138.252,221.129 138.185 C 220.596 138.118,219.976 137.839,219.751 137.565 C 219.495 137.253,218.804 136.996,217.902 136.876 C 217.111 136.771,216.249 136.571,215.988 136.431 C 215.726 136.291,214.938 136.122,214.235 136.056 C 213.533 135.991,212.916 135.812,212.865 135.659 C 212.814 135.506,212.371 135.381,211.879 135.381 C 211.388 135.381,210.806 135.200,210.586 134.980 C 210.334 134.728,209.658 134.575,208.764 134.568 C 207.470 134.557,205.337 134.134,204.673 133.757 C 204.526 133.673,203.745 133.626,202.937 133.651 C 202.074 133.678,201.238 133.547,200.908 133.333 C 200.514 133.077,199.023 132.933,195.872 132.848 C 192.948 132.769,191.263 132.616,191.010 132.406 C 190.709 132.156,190.081 132.159,188.169 132.418 C 185.612 132.765,182.348 132.491,182.155 131.914 C 182.049 131.595,181.732 131.599,180.641 131.934 M70.087 150.087 C 69.990 150.392,69.989 150.719,70.084 150.813 C 70.284 151.014,70.751 150.357,70.757 149.866 C 70.764 149.325,70.278 149.485,70.087 150.087 M381.041 154.882 C 381.041 155.226,381.222 155.407,381.567 155.407 C 382.160 155.407,382.053 154.744,381.421 154.502 C 381.172 154.406,381.041 154.537,381.041 154.882 M106.450 183.231 C 107.117 183.898,107.121 183.925,106.808 185.989 C 106.620 187.227,106.467 191.983,106.430 197.708 C 106.381 205.289,106.288 207.514,105.995 208.144 C 105.486 209.237,103.600 211.749,103.287 211.749 C 103.148 211.749,102.495 212.119,101.837 212.572 C 99.766 213.997,93.644 214.518,92.129 213.398 C 91.753 213.120,91.201 212.815,90.904 212.720 C 89.087 212.144,86.584 207.682,87.428 206.526 C 87.911 205.867,89.608 205.299,91.684 205.103 C 93.658 204.917,93.779 204.981,95.060 206.896 C 96.011 208.316,99.275 207.316,99.556 205.517 C 99.726 204.433,99.778 189.459,99.622 186.577 C 99.446 183.340,99.468 183.181,100.089 183.169 C 100.334 183.164,100.774 182.974,101.068 182.746 C 101.976 182.040,105.585 182.366,106.450 183.231 M121.187 183.617 C 121.792 184.011,121.807 184.100,121.601 186.205 C 120.981 192.576,121.550 203.731,122.584 205.474 C 124.210 208.212,128.471 209.112,130.994 207.251 C 133.252 205.584,133.506 204.157,133.486 193.243 C 133.467 182.556,133.301 182.970,137.421 183.486 C 140.008 183.810,140.840 184.254,140.551 185.158 C 140.391 185.658,140.338 187.830,140.189 199.957 C 140.165 201.916,140.204 203.578,140.277 203.650 C 140.349 203.723,140.181 204.283,139.903 204.895 C 139.625 205.507,139.395 206.275,139.392 206.601 C 139.383 207.491,138.344 209.311,137.480 209.949 C 137.059 210.260,136.716 210.672,136.716 210.865 C 136.716 211.057,136.484 211.215,136.201 211.215 C 135.918 211.215,135.464 211.485,135.191 211.816 C 134.124 213.112,131.192 214.668,130.557 214.275 C 130.444 214.205,129.650 214.309,128.794 214.507 C 126.204 215.103,121.609 214.107,120.438 212.697 C 120.249 212.469,119.939 212.283,119.749 212.283 C 119.011 212.283,116.517 209.106,115.821 207.278 C 114.822 204.654,114.793 204.318,114.676 193.808 L 114.570 184.211 115.323 183.475 C 116.174 182.643,119.827 182.731,121.187 183.617 M161.549 183.438 C 163.566 183.809,166.084 184.985,167.677 186.301 C 168.266 186.787,167.555 188.404,166.164 189.741 C 164.335 191.499,163.747 191.563,161.513 190.254 C 158.181 188.301,154.606 189.256,154.606 192.097 C 154.606 194.002,156.099 195.081,160.515 196.365 C 161.342 196.606,162.459 197.102,162.997 197.467 C 163.535 197.832,164.102 198.131,164.257 198.131 C 164.685 198.131,166.974 200.577,167.388 201.477 C 167.588 201.913,167.859 202.478,167.988 202.733 C 168.304 203.353,168.292 207.938,167.974 208.134 C 167.668 208.323,166.889 209.849,166.889 210.259 C 166.889 210.906,164.347 213.175,162.910 213.811 C 159.652 215.254,155.570 215.612,152.935 214.686 C 152.099 214.393,151.165 214.152,150.860 214.152 C 150.183 214.152,147.261 212.211,147.029 211.606 C 146.576 210.425,146.867 209.790,148.644 208.091 C 150.729 206.096,151.121 206.067,153.339 207.746 C 156.375 210.044,160.757 209.243,161.383 206.275 C 161.722 204.672,158.303 201.763,155.674 201.417 C 152.760 201.033,148.980 198.204,148.096 195.745 C 145.837 189.462,150.268 183.554,157.349 183.406 C 158.197 183.389,158.958 183.265,159.041 183.131 C 159.123 182.998,159.391 182.952,159.635 183.029 C 159.880 183.106,160.741 183.290,161.549 183.438 M187.850 184.647 C 197.550 184.832,197.880 184.960,197.454 188.370 C 197.134 190.930,196.893 191.067,193.418 190.653 C 189.322 190.166,187.540 190.793,187.842 192.615 C 188.437 196.219,188.331 214.347,187.710 215.095 C 187.289 215.602,182.367 215.314,181.923 214.757 C 181.685 214.458,181.634 212.368,181.722 206.577 C 181.985 189.270,182.180 190.670,179.497 190.623 C 178.510 190.605,177.283 190.567,176.769 190.538 C 176.255 190.509,175.294 190.575,174.633 190.685 C 173.027 190.953,172.860 190.718,172.678 187.940 C 172.534 185.755,172.562 185.588,173.175 184.926 L 173.825 184.226 177.233 184.367 C 179.107 184.445,183.885 184.571,187.850 184.647 M208.430 185.822 C 209.117 186.592,209.120 186.622,209.131 191.362 C 209.155 201.180,208.919 215.202,208.729 215.392 C 208.153 215.968,203.877 215.942,203.257 215.358 L 202.643 214.780 202.674 204.920 C 202.691 199.497,202.713 194.820,202.723 194.526 C 202.733 194.232,202.713 192.345,202.678 190.331 C 202.598 185.708,202.765 185.391,205.368 185.245 C 206.307 185.193,207.225 185.126,207.408 185.098 C 207.590 185.070,208.050 185.395,208.430 185.822 M224.646 186.010 C 225.689 186.534,226.245 187.180,227.148 188.919 C 227.529 189.653,228.336 190.915,228.941 191.722 C 229.547 192.530,230.333 193.767,230.690 194.471 C 231.046 195.175,231.617 196.030,231.959 196.372 C 232.588 197.001,233.912 198.843,233.912 199.089 C 233.912 199.914,236.913 203.533,237.432 203.333 C 238.383 202.968,238.465 202.260,238.460 194.378 L 238.455 186.634 239.188 186.354 C 242.743 184.997,245.129 185.984,244.973 188.749 C 244.919 189.723,244.812 194.186,244.735 198.665 C 244.395 218.636,244.889 216.807,240.053 216.006 C 239.246 215.872,238.304 215.716,237.960 215.659 C 236.987 215.498,235.943 214.590,235.623 213.626 C 235.463 213.144,235.068 212.551,234.745 212.307 C 234.422 212.063,233.706 210.907,233.154 209.737 C 231.859 206.995,230.679 204.842,230.174 204.299 C 229.449 203.520,227.278 200.587,226.858 199.819 C 226.139 198.504,225.698 198.091,224.922 198.003 C 223.682 197.863,223.535 198.197,223.484 201.287 C 223.424 204.870,223.423 204.332,223.506 210.031 C 223.595 216.125,223.651 216.021,220.241 216.021 C 217.171 216.021,217.115 215.941,217.249 211.749 C 217.302 210.060,217.398 204.112,217.462 198.531 C 217.526 192.951,217.588 188.070,217.601 187.686 C 217.666 185.687,221.966 184.664,224.646 186.010 M114.474 230.608 C 117.643 230.782,117.704 230.827,117.785 233.057 C 117.867 235.327,117.526 235.593,114.820 235.368 C 113.718 235.277,112.457 235.215,112.016 235.230 C 104.564 235.489,101.608 235.473,101.418 235.175 C 101.069 234.624,101.164 231.071,101.536 230.762 C 102.171 230.235,106.712 230.181,114.474 230.608 M147.461 231.541 C 148.367 231.997,148.429 233.697,147.601 235.351 L 147.081 236.389 144.235 236.163 C 142.669 236.038,139.286 235.960,136.716 235.988 L 132.043 236.040 131.709 235.323 C 131.305 234.456,131.275 232.609,131.648 231.628 L 131.920 230.911 139.325 231.042 C 144.868 231.140,146.913 231.266,147.461 231.541 M177.449 232.431 C 177.907 232.925,178.038 233.379,178.023 234.409 C 177.988 236.727,177.120 236.903,167.771 236.495 C 165.255 236.385,163.446 236.419,163.009 236.585 C 161.943 236.991,161.302 236.084,161.291 234.154 C 161.276 231.783,161.223 231.802,168.106 231.695 C 175.944 231.572,176.709 231.633,177.449 232.431 M202.575 232.420 C 207.280 232.449,207.628 232.636,207.343 234.975 C 207.100 236.975,207.315 236.894,201.960 237.021 C 199.340 237.083,196.295 237.178,195.194 237.231 C 191.727 237.398,191.174 237.054,190.853 234.533 C 190.588 232.462,191.581 232.007,195.861 232.238 C 197.477 232.326,200.498 232.407,202.575 232.420 M228.838 232.934 C 236.404 233.042,236.844 233.144,236.847 234.783 C 236.848 235.336,236.738 235.997,236.602 236.252 C 236.465 236.507,236.291 236.921,236.214 237.172 C 236.032 237.763,221.750 237.771,221.039 237.180 C 219.791 236.144,220.654 232.238,222.021 232.739 C 222.172 232.795,225.240 232.883,228.838 232.934 M265.539 234.084 C 266.313 235.143,266.141 237.059,265.199 237.847 C 264.430 238.491,264.626 238.488,253.433 238.058 C 250.434 237.943,249.734 237.489,249.627 235.592 C 249.496 233.282,250.195 233.141,260.881 233.310 C 265.019 233.376,265.020 233.376,265.539 234.084 M156.654 251.809 C 162.330 253.248,165.300 255.454,163.885 257.181 C 162.025 259.452,159.534 260.422,158.105 259.432 C 157.560 259.054,157.019 258.745,156.902 258.745 C 156.785 258.745,156.311 258.571,155.848 258.359 C 155.385 258.147,154.343 257.856,153.532 257.712 C 152.721 257.568,151.940 257.419,151.797 257.380 C 149.435 256.743,142.666 261.419,143.256 263.280 C 143.337 263.535,143.224 263.892,143.005 264.073 C 142.347 264.619,142.466 269.239,143.173 270.619 C 143.477 271.211,143.830 271.904,143.959 272.159 C 144.087 272.414,144.192 272.805,144.192 273.027 C 144.192 273.249,144.289 273.431,
144.407 273.431 C 144.525 273.431,145.096 273.867,145.675 274.400 C 148.187 276.710,151.297 277.435,155.154 276.608 C 159.340 275.710,159.391 270.043,155.208 270.618 C 152.824 270.946,150.747 267.255,152.295 265.442 C 152.494 265.210,152.734 264.800,152.830 264.530 C 153.115 263.731,162.041 264.026,163.834 264.894 L 165.091 265.502 164.909 267.397 C 164.671 269.891,164.664 276.469,164.897 278.648 C 165.069 280.247,165.044 280.374,164.558 280.374 C 164.270 280.374,163.817 280.614,163.551 280.908 C 163.286 281.202,162.853 281.442,162.591 281.442 C 162.329 281.442,162.044 281.555,161.959 281.694 C 161.873 281.832,161.235 282.018,160.541 282.108 C 159.847 282.197,159.085 282.375,158.847 282.504 C 155.196 284.478,145.082 282.998,142.008 280.040 C 141.741 279.783,141.361 279.573,141.164 279.573 C 139.929 279.573,137.024 274.937,136.037 271.389 C 135.144 268.183,136.067 260.625,137.530 259.159 C 137.670 259.019,137.784 258.749,137.784 258.558 C 137.784 258.367,137.994 257.988,138.251 257.714 C 138.508 257.441,139.052 256.783,139.460 256.251 C 142.598 252.159,150.244 250.184,156.654 251.809 M193.347 252.695 C 197.828 254.189,202.058 258.335,202.561 261.724 C 202.656 262.362,202.924 263.184,203.158 263.551 C 203.629 264.292,203.677 271.438,203.217 272.316 C 203.088 272.562,202.800 273.186,202.576 273.702 C 201.297 276.662,201.165 276.874,199.534 278.565 C 195.778 282.459,193.113 283.633,187.850 283.712 C 184.002 283.769,181.638 283.310,179.880 282.165 C 179.124 281.672,178.084 281.015,177.570 280.705 C 175.169 279.255,172.376 275.046,171.593 271.696 C 171.232 270.154,171.464 263.227,171.894 262.685 C 172.040 262.501,172.313 261.869,172.500 261.282 C 173.654 257.657,178.191 253.144,180.691 253.136 C 180.957 253.135,181.527 252.951,181.957 252.726 C 184.109 251.604,190.029 251.588,193.347 252.695 M225.302 253.268 C 225.962 253.637,226.611 253.939,226.743 253.939 C 226.875 253.939,227.584 254.387,228.319 254.936 C 229.992 256.185,229.942 256.974,228.086 258.609 C 225.630 260.772,225.149 260.950,224.166 260.063 C 222.508 258.570,219.439 258.176,217.914 259.262 C 216.782 260.068,215.717 262.750,216.529 262.750 C 216.661 262.750,217.394 263.171,218.158 263.685 C 218.921 264.199,219.728 264.619,219.950 264.619 C 220.172 264.619,221.487 265.160,222.873 265.821 C 224.259 266.482,225.519 267.023,225.672 267.023 C 226.198 267.023,229.029 270.094,229.240 270.895 C 229.548 272.059,229.630 276.610,229.347 276.785 C 229.214 276.867,229.102 277.197,229.097 277.519 C 229.089 278.073,228.964 278.300,227.839 279.796 C 225.142 283.384,220.262 284.752,214.915 283.420 C 214.086 283.213,213.139 283.044,212.811 283.044 C 212.257 283.044,209.153 281.141,208.779 280.572 C 208.276 279.806,209.350 277.830,211.078 276.344 C 211.923 275.617,213.641 275.497,214.303 276.118 C 214.606 276.403,214.980 276.636,215.135 276.636 C 215.289 276.636,215.751 276.900,216.161 277.222 C 217.650 278.393,222.616 277.593,222.736 276.163 C 222.960 273.495,221.467 271.787,218.024 270.773 C 214.306 269.678,210.414 267.162,210.414 265.853 C 210.414 265.651,210.220 265.325,209.983 265.128 C 209.217 264.493,209.569 258.922,210.471 257.382 C 212.862 253.302,221.217 250.984,225.302 253.268 M251.231 253.410 C 251.871 253.701,252.619 253.939,252.894 253.939 C 253.591 253.939,256.075 256.510,256.073 257.229 C 256.071 257.807,253.286 260.381,252.464 260.565 C 252.257 260.612,251.284 260.267,250.303 259.798 C 248.370 258.876,245.549 258.815,244.598 259.675 C 244.374 259.877,243.861 260.168,243.457 260.322 C 242.646 260.630,242.600 260.827,243.002 262.272 C 243.345 263.507,244.320 264.223,246.809 265.065 C 247.857 265.419,248.898 265.870,249.123 266.065 C 249.348 266.261,250.013 266.575,250.601 266.763 C 259.898 269.738,257.153 282.977,246.996 284.148 C 245.117 284.365,242.104 284.225,241.534 283.894 C 241.394 283.813,240.916 283.706,240.473 283.658 C 238.698 283.463,235.240 281.053,235.256 280.022 C 235.295 277.670,239.476 275.284,241.194 276.635 C 244.367 279.131,249.399 278.112,249.399 274.973 C 249.399 273.984,247.151 271.829,246.119 271.829 C 245.884 271.829,245.624 271.718,245.540 271.583 C 245.457 271.447,244.602 271.075,243.642 270.756 C 240.233 269.621,237.964 268.023,236.854 265.975 C 236.090 264.565,235.855 259.899,236.515 259.239 C 236.699 259.055,236.849 258.706,236.849 258.462 C 236.849 257.205,240.595 254.223,243.124 253.466 C 245.678 252.702,249.609 252.675,251.231 253.410 M274.932 254.035 C 284.628 254.157,284.299 254.040,284.012 257.245 C 283.746 260.204,283.828 260.171,277.230 259.958 C 272.051 259.791,271.767 259.808,270.914 260.335 C 269.158 261.420,269.266 265.154,271.054 265.154 C 271.316 265.154,271.605 265.274,271.696 265.421 C 271.791 265.574,273.244 265.691,275.116 265.696 C 281.387 265.713,283.556 266.367,283.170 268.124 C 283.083 268.522,283.004 269.345,282.996 269.953 C 282.970 271.807,282.601 271.909,277.152 271.553 C 270.091 271.093,269.486 271.370,269.650 274.985 C 269.742 277.009,269.805 277.225,270.364 277.438 C 270.701 277.566,271.055 277.798,271.151 277.954 C 271.266 278.140,273.334 278.238,277.162 278.238 L 282.997 278.238 283.721 279.098 C 284.694 280.255,284.360 284.883,283.348 284.270 C 283.254 284.214,280.414 284.089,277.036 283.993 C 273.658 283.897,270.572 283.756,270.178 283.681 C 269.784 283.605,268.491 283.686,267.305 283.859 C 262.991 284.490,263.262 285.554,263.445 268.699 L 263.589 255.407 264.495 254.544 C 265.195 253.879,265.572 253.710,266.146 253.807 C 266.555 253.877,270.508 253.979,274.932 254.035 M306.193 254.683 C 308.133 255.467,308.818 255.892,309.464 256.712 C 310.330 257.814,310.553 259.012,309.890 259.012 C 309.676 259.012,309.285 259.232,309.022 259.500 C 308.760 259.768,308.118 260.305,307.595 260.693 L 306.646 261.399 304.778 260.639 C 301.193 259.180,299.852 259.229,298.061 260.883 C 296.146 262.651,296.997 264.432,300.351 265.676 C 301.835 266.227,304.110 267.231,304.673 267.584 C 304.893 267.722,305.474 268.018,305.964 268.243 C 309.282 269.764,311.406 275.788,309.630 278.638 C 309.447 278.932,309.222 279.473,309.130 279.840 C 308.089 284.015,299.322 286.553,294.026 284.212 C 293.236 283.864,292.455 283.573,292.290 283.567 C 291.596 283.541,289.960 281.747,289.829 280.869 C 289.712 280.074,289.858 279.801,291.137 278.438 C 292.908 276.551,293.167 276.534,296.218 278.104 C 300.409 280.261,303.605 279.193,303.605 275.635 C 303.605 274.238,301.719 272.264,300.326 272.204 C 299.999 272.189,299.346 271.979,298.877 271.736 C 298.408 271.494,297.806 271.295,297.539 271.295 C 296.217 271.295,291.322 267.721,291.322 266.755 C 291.322 266.520,291.194 266.200,291.037 266.044 C 290.517 265.523,290.386 261.714,290.857 260.778 C 291.087 260.321,291.556 259.348,291.899 258.616 C 293.949 254.248,300.590 252.420,306.193 254.683 M391.977 256.223 C 391.736 256.513,391.721 256.714,391.924 256.917 C 392.266 257.260,392.790 256.992,392.790 256.475 C 392.790 255.905,392.354 255.769,391.977 256.223 M183.838 258.485 C 183.576 258.775,183.131 259.012,182.848 259.012 C 182.048 259.012,179.274 261.941,179.042 263.030 C 178.934 263.537,178.661 264.162,178.435 264.418 C 177.779 265.162,178.147 269.824,179.011 271.710 C 182.573 279.491,193.053 279.174,196.239 271.190 L 197.151 268.905 196.811 266.624 C 196.266 262.960,194.756 260.740,191.500 258.817 C 189.881 257.862,184.610 257.633,183.838 258.485 M384.541 324.143 C 384.084 324.432,384.345 325.234,384.895 325.234 C 385.244 325.234,385.848 324.483,385.848 324.050 C 385.848 323.816,384.957 323.879,384.541 324.143 M359.447 370.700 C 358.980 371.166,359.079 371.380,359.971 371.842 C 360.916 372.331,361.049 372.285,360.853 371.537 C 360.659 370.792,359.841 370.306,359.447 370.700 M398.787 391.206 C 398.691 391.363,398.834 391.659,399.105 391.865 C 399.765 392.365,400.094 392.352,399.895 391.834 C 399.806 391.602,399.733 391.301,399.733 391.166 C 399.733 390.827,399.003 390.858,398.787 391.206 M396.133 395.981 C 396.042 396.267,395.721 396.580,395.420 396.675 C 395.026 396.800,394.954 396.930,395.163 397.139 C 395.496 397.472,396.796 396.418,396.796 395.815 C 396.796 395.274,396.319 395.393,396.133 395.981 M390.171 405.895 C 390.224 406.052,390.354 406.173,390.461 406.162" stroke="none" fill="#fb8721" fill-rule="evenodd"></path><path id="path1" d="M0.000 236.182 L 0.000 472.363 175.292 472.363 C 342.115 472.363,350.577 472.341,350.437 471.896 C 350.298 471.452,350.310 471.452,350.673 471.893 C 351.154 472.476,366.766 472.536,366.989 471.955 C 367.160 471.508,368.859 471.285,369.875 471.576 C 370.430 471.735,370.792 471.727,370.900 471.554 C 371.216 471.042,372.764 470.749,372.764 471.201 C 372.764 471.523,374.397 471.519,374.512 471.197 C 375.103 469.540,375.629 469.342,376.053 470.616 C 376.267 471.258,376.213 471.443,375.697 471.832 C 375.104 472.279,375.145 472.292,377.264 472.338 C 378.620 472.366,379.439 472.280,379.439 472.107 C 379.439 471.954,379.680 471.829,379.973 471.829 C 380.267 471.829,380.507 471.949,380.507 472.096 C 380.507 472.266,382.541 472.363,386.074 472.363 C 392.098 472.363,392.888 472.210,393.766 470.870 C 393.997 470.516,394.383 470.233,394.624 470.241 C 394.963 470.252,394.927 470.348,394.459 470.674 C 392.815 471.821,393.609 472.363,396.929 472.363 L 400.000 472.363 400.000 468.501 C 400.000 464.047,399.697 463.419,398.114 464.589 C 397.648 464.934,397.075 465.110,396.611 465.051 C 396.199 464.998,396.011 465.009,396.195 465.074 C 396.657 465.238,396.614 465.865,396.128 466.051 C 395.908 466.136,395.728 466.532,395.728 466.931 L 395.728 467.657 395.194 467.084 C 394.900 466.769,394.660 466.386,394.660 466.233 C 394.660 465.804,394.181 465.904,393.909 466.389 C 393.742 466.687,393.606 466.729,393.479 466.523 C 393.148 465.988,392.727 466.200,392.883 466.822 C 393.010 467.328,392.920 467.430,392.311 467.469 C 390.390 467.591,388.765 467.926,388.490 468.258 C 388.166 468.648,387.462 468.759,387.432 468.425 C 387.422 468.314,387.361 467.820,387.297 467.325 C 387.192 466.517,387.238 466.441,387.746 466.574 C 
388.248 466.705,388.294 466.635,388.156 465.948 C 387.991 465.120,388.415 464.574,388.682 465.270 C 388.858 465.728,389.586 465.849,389.586 465.421 C 389.586 465.274,389.812 465.154,390.087 465.154 C 390.363 465.154,390.749 464.961,390.944 464.725 C 391.432 464.138,392.262 463.857,393.736 463.780 C 394.478 463.742,395.038 463.572,395.119 463.360 C 395.289 462.918,395.995 463.417,395.995 463.979 C 395.995 464.269,396.129 464.280,396.666 464.035 C 397.131 463.823,397.292 463.585,397.188 463.260 C 397.099 462.977,397.218 462.690,397.487 462.539 C 397.810 462.359,397.900 462.049,397.809 461.432 C 397.697 460.668,397.744 460.591,398.241 460.724 C 398.548 460.807,398.896 460.876,399.014 460.878 C 399.133 460.880,399.164 460.989,399.083 461.120 C 399.001 461.252,399.170 461.642,399.459 461.988 C 400.050 462.698,400.171 462.498,399.666 461.644 C 399.417 461.221,399.411 461.050,399.643 460.965 C 399.980 460.842,400.177 438.689,399.848 437.833 C 399.641 437.293,399.199 437.502,399.199 438.140 C 399.199 438.528,398.972 438.586,397.737 438.518 C 396.573 438.454,396.169 438.544,395.754 438.958 C 395.468 439.245,394.981 439.614,394.672 439.780 C 394.363 439.945,394.176 440.186,394.256 440.315 C 394.474 440.668,393.883 440.937,393.513 440.653 C 393.263 440.462,392.062 440.409,391.513 440.566 C 391.471 440.578,391.552 440.804,391.694 441.069 C 391.852 441.363,391.857 441.701,391.708 441.937 C 391.517 442.238,391.463 442.193,391.459 441.732 C 391.456 441.221,390.786 440.587,390.250 440.587 C 390.155 440.587,390.158 440.953,390.256 441.399 C 390.365 441.896,390.309 442.363,390.111 442.601 C 389.645 443.163,389.233 443.080,389.396 442.457 C 389.575 441.772,387.215 441.661,386.553 442.323 C 386.315 442.562,385.662 442.724,384.935 442.724 C 384.005 442.724,383.637 442.850,383.383 443.258 C 383.199 443.551,382.830 443.792,382.562 443.792 C 381.996 443.792,380.989 444.281,380.728 444.682 C 380.608 444.867,380.414 444.848,380.144 444.624 C 379.841 444.372,379.603 444.362,379.189 444.584 C 378.608 444.895,378.442 445.394,378.921 445.394 C 379.076 445.394,379.136 445.503,379.054 445.636 C 378.857 445.956,377.759 445.669,377.496 445.229 C 377.382 445.038,377.095 444.956,376.859 445.047 C 376.565 445.160,376.469 445.093,376.556 444.836 C 376.626 444.629,376.912 444.459,377.193 444.459 C 378.106 444.459,378.469 444.056,377.920 443.652 C 377.454 443.309,377.455 443.289,377.931 443.104 C 378.236 442.986,378.510 443.050,378.647 443.272 C 378.808 443.533,378.918 443.434,379.049 442.910 C 379.149 442.514,379.394 442.190,379.593 442.190 C 379.806 442.190,379.893 442.355,379.803 442.590 C 379.718 442.810,379.782 442.991,379.945 442.991 C 380.107 442.991,380.240 442.855,380.240 442.690 C 380.240 442.499,380.530 442.448,381.036 442.549 C 381.635 442.669,381.895 442.591,382.086 442.234 C 382.341 441.757,384.030 441.592,384.660 441.982 C 384.813 442.077,385.348 441.834,385.848 441.442 C 386.349 441.051,386.884 440.716,387.037 440.700 C 387.191 440.683,387.540 440.650,387.812 440.628 C 388.142 440.601,388.255 440.450,388.151 440.177 C 388.055 439.928,388.175 439.701,388.456 439.599 C 388.710 439.508,389.238 439.212,389.627 438.942 C 390.616 438.257,391.572 438.269,391.201 438.961 C 391.021 439.298,390.746 439.424,390.391 439.331 C 390.065 439.245,389.853 439.321,389.853 439.522 C 389.853 439.817,391.331 439.732,391.644 439.419 C 391.907 439.157,391.942 438.049,391.698 437.755 C 391.496 437.512,391.572 437.266,391.971 436.867 C 392.542 436.296,393.591 436.112,393.591 436.582 C 393.591 436.729,393.418 436.849,393.207 436.849 C 392.683 436.849,392.520 437.179,392.701 437.871 C 393.003 439.026,394.215 437.665,394.190 436.198 C 394.178 435.461,394.199 435.439,394.408 435.977 C 394.683 436.687,396.161 436.556,396.719 435.772 C 396.898 435.522,397.408 435.245,397.853 435.156 C 398.298 435.067,398.959 434.800,399.321 434.562 L 399.979 434.131 399.992 413.240 L 400.005 392.349 399.329 391.987 C 398.605 391.600,398.574 391.107,399.265 390.973 C 399.498 390.928,399.744 391.108,399.813 391.373 C 399.882 391.639,399.952 303.688,399.969 195.928 L 400.000 0.000 200.000 0.000 L 0.000 0.000 0.000 236.182 M182.155 131.914 C 182.348 132.491,185.612 132.765,188.169 132.418 C 190.081 132.159,190.709 132.156,191.010 132.406 C 191.263 132.616,192.948 132.769,195.872 132.848 C 199.023 132.933,200.514 133.077,200.908 133.333 C 201.238 133.547,202.074 133.678,202.937 133.651 C 203.745 133.626,204.526 133.673,204.673 133.757 C 205.337 134.134,207.470 134.557,208.764 134.568 C 209.658 134.575,210.334 134.728,210.586 134.980 C 210.806 135.200,211.388 135.381,211.879 135.381 C 212.371 135.381,212.814 135.506,212.865 135.659 C 212.916 135.812,213.533 135.991,214.235 136.056 C 214.938 136.122,215.726 136.291,215.988 136.431 C 216.249 136.571,217.111 136.771,217.902 136.876 C 218.804 136.996,219.495 137.253,219.751 137.565 C 219.976 137.839,220.596 138.118,221.129 138.185 C 221.662 138.252,222.383 138.412,222.731 138.541 C 223.079 138.670,223.531 138.717,223.735 138.645 C 223.939 138.574,224.211 138.704,224.339 138.933 C 224.468 139.163,225.443 139.611,226.505 139.930 C 227.568 140.249,229.261 140.918,230.268 141.417 C 231.274 141.915,232.307 142.323,232.563 142.323 C 233.207 142.323,234.608 143.034,236.126 144.131 C 236.830 144.639,237.893 145.165,238.490 145.299 C 239.087 145.433,239.964 145.840,240.440 146.203 C 240.916 146.565,241.402 146.862,241.520 146.862 C 241.638 146.862,242.247 147.283,242.875 147.797 C 243.502 148.311,244.128 148.732,244.266 148.732 C 244.403 148.732,245.067 149.152,245.740 149.666 C 246.413 150.180,247.042 150.601,247.137 150.601 C 247.233 150.601,247.631 150.895,248.021 151.254 C 248.412 151.613,249.813 152.755,251.135 153.792 C 253.784 155.869,254.225 156.265,258.955 160.814 C 260.749 162.539,262.216 164.056,262.216 164.185 C 262.216 164.314,262.644 164.885,263.167 165.454 C 266.503 169.088,268.543 171.707,269.845 174.030 C 270.296 174.834,270.868 175.606,271.116 175.745 C 271.364 175.884,271.740 176.411,271.952 176.917 C 272.163 177.423,272.475 177.837,272.645 177.837 C 272.815 177.837,272.890 178.005,272.811 178.211 C 272.732 178.416,273.004 179.047,273.416 179.612 C 273.827 180.178,274.615 181.482,275.166 182.510 C 275.718 183.538,276.334 184.513,276.536 184.676 C 276.737 184.839,276.903 185.176,276.903 185.425 C 276.903 185.675,277.189 186.392,277.539 187.019 C 277.889 187.646,278.306 188.390,278.464 188.673 C 278.881 189.416,279.999 192.011,280.238 192.790 C 280.351 193.158,280.708 193.939,281.032 194.526 C 281.673 195.686,283.203 199.785,283.604 201.413 C 283.741 201.971,284.129 202.872,284.467 203.416 C 284.805 203.960,285.235 205.110,285.424 205.970 C 285.612 206.831,286.054 208.110,286.408 208.813 C 286.761 209.516,287.049 210.245,287.049 210.434 C 287.049 211.061,288.180 214.538,288.729 215.599 C 289.123 216.360,289.254 217.074,289.213 218.223 C 289.178 219.203,289.355 220.427,289.681 221.450 C 289.970 222.356,290.273 224.087,290.355 225.297 C 290.437 226.507,290.694 227.866,290.928 228.317 C 291.161 228.768,291.321 229.460,291.284 229.855 C 291.246 230.251,291.312 231.020,291.430 231.565 C 291.606 232.377,291.542 232.685,291.078 233.275 L 290.512 233.995 285.441 233.940 C 278.973 233.869,278.667 233.987,278.934 236.443 C 279.031 237.327,279.164 238.111,279.231 238.184 C 279.298 238.258,282.570 238.316,286.501 238.315 C 294.350 238.311,294.518 238.279,294.536 236.750 C 294.541 236.271,294.824 235.573,295.199 235.113 L 295.853 234.312 301.398 234.232 L 306.943 234.151 307.944 235.351 C 308.495 236.011,308.945 236.783,308.945 237.068 C 308.945 238.171,309.471 238.265,315.965 238.315 C 323.042 238.369,322.740 238.413,322.977 237.294 C 323.561 234.548,324.852 233.509,327.114 233.966 C 327.635 234.071,329.221 234.220,330.639 234.297 C 334.069 234.484,335.280 235.447,334.985 237.749 C 334.888 238.503,334.766 240.080,334.713 241.255 C 334.660 242.430,334.516 244.414,334.393 245.665 C 334.269 246.916,334.268 248.538,334.391 249.270 C 334.565 250.306,334.522 250.759,334.195 251.313 C 333.888 251.832,333.842 252.203,334.024 252.681 C 334.175 253.079,334.177 253.433,334.029 253.582 C 333.894 253.716,333.725 256.022,333.653 258.706 C 333.536 263.098,333.468 263.655,332.978 264.278 C 332.679 264.659,332.490 265.162,332.560 265.396 C 332.691 265.842,331.914 269.789,331.423 271.162 C 331.266 271.602,330.991 272.684,330.813 273.565 C 330.634 274.446,330.387 275.281,330.264 275.421 C 330.141 275.560,330.040 275.928,330.040 276.237 C 330.040 276.547,329.864 277.034,329.648 277.319 C 329.432 277.604,329.252 278.085,329.247 278.388 C 329.243 278.691,328.862 280.012,328.401 281.325 C 327.940 282.638,327.286 284.517,326.947 285.502 C 326.609 286.487,326.010 287.868,325.616 288.573 C 325.222 289.277,324.425 290.935,323.845 292.256 C 323.265 293.578,322.499 294.967,322.143 295.342 C 321.787 295.717,321.495 296.150,321.495 296.304 C 321.495 296.458,321.195 296.908,320.828 297.305 C 320.461 297.701,320.160 298.180,320.160 298.370 C 320.160 298.560,319.920 298.933,319.626 299.199 C 319.332 299.465,319.092 299.794,319.092 299.930 C 319.092 301.122,308.776 312.302,306.142 313.966 C 305.554 314.337,304.473 315.109,303.738 315.681 C 299.574 318.930,288.606 324.857,285.269 325.662 C 284.853 325.762,283.976 326.093,283.321 326.396 C 281.829 327.087,278.977 328.109,277.570 328.456 C 276.983 328.601,276.049 328.897,275.495 329.113 C 274.942 329.329,274.153 329.506,273.743 329.506 C 273.334 329.506,272.282 329.787,271.407 330.130 C 270.532 330.473,269.149 330.832,268.334 330.927 C 267.518 331.023,266.474 331.290,266.013 331.520 C 265.552 331.750,263.638 332.180,261.759 332.475 C 259.881 332.770,257.263 333.190,255.941 333.409 C 254.619 333.627,252.637 333.917,251.535 334.053 C 250.434 334.190,248.331 334.484,246.862 334.709 C 245.394 334.933,243.591 335.173,242.857 335.243 C 235.109 335.979,229.381 336.412,224.833 336.605 C 216.363 336.965,198.124 336.529,195.461 335.903 C 194.800 335.748,192.577 335.447,190.521 335.235 C 
188.465 335.022,186.001 334.676,185.047 334.465 C 184.092 334.254,182.410 333.944,181.308 333.776 C 180.207 333.607,178.705 333.311,177.971 333.117 C 177.236 332.923,175.494 332.496,174.099 332.167 C 172.704 331.839,170.421 331.150,169.025 330.636 C 167.630 330.122,165.948 329.610,165.287 329.499 C 164.101 329.298,161.283 328.247,159.905 327.492 C 159.516 327.278,159.035 327.100,158.837 327.097 C 158.460 327.091,149.779 322.761,145.659 320.524 C 143.424 319.311,141.048 317.779,140.258 317.043 C 140.074 316.871,139.291 316.367,138.519 315.923 C 137.748 315.479,136.275 314.351,135.247 313.416 C 134.219 312.481,132.837 311.345,132.176 310.893 C 130.225 309.556,119.626 298.346,119.626 297.618 C 119.626 297.537,118.995 296.634,118.224 295.610 C 116.495 293.314,115.316 291.666,114.917 290.990 C 114.751 290.707,114.481 290.342,114.317 290.178 C 114.153 290.014,114.019 289.682,114.019 289.439 C 114.019 289.197,113.641 288.478,113.180 287.841 C 112.719 287.205,112.038 286.015,111.667 285.198 C 111.296 284.380,110.713 283.266,110.373 282.722 C 110.033 282.178,109.300 280.857,108.743 279.785 C 108.187 278.714,107.537 277.537,107.300 277.170 C 107.063 276.802,106.785 276.021,106.683 275.434 C 106.581 274.846,106.193 273.765,105.822 273.031 C 105.450 272.296,104.918 271.041,104.639 270.241 C 104.360 269.441,103.961 268.526,103.752 268.207 C 103.543 267.888,103.192 266.679,102.972 265.519 C 102.752 264.359,102.309 262.811,101.988 262.079 C 101.667 261.347,101.307 260.387,101.187 259.947 C 100.039 255.720,99.801 254.716,99.700 253.677 C 99.636 253.019,99.394 251.818,99.161 251.007 C 98.654 249.241,98.350 247.111,98.019 242.991 C 97.882 241.302,97.642 239.582,97.484 239.168 C 97.326 238.755,97.196 237.425,97.196 236.214 C 97.196 232.848,96.824 232.577,92.206 232.577 L 88.714 232.577 87.689 231.442 L 86.664 230.307 78.989 230.229 L 71.315 230.151 70.704 231.091 C 70.169 231.916,68.865 232.728,68.563 232.426 C 68.504 232.367,65.967 232.253,62.926 232.173 L 57.395 232.028 56.268 230.932 L 55.140 229.837 52.697 229.982 C 49.073 230.198,49.008 230.127,49.229 226.254 C 49.324 224.585,49.520 223.011,49.664 222.758 C 49.922 222.303,50.556 219.164,50.971 216.288 C 51.088 215.481,51.323 214.481,51.493 214.068 C 51.663 213.655,51.802 213.042,51.802 212.707 C 51.802 212.372,51.981 211.740,52.199 211.303 C 52.417 210.866,52.727 209.562,52.888 208.407 C 53.049 207.252,53.463 205.748,53.809 205.066 C 54.155 204.383,54.690 203.054,54.998 202.113 C 55.306 201.171,56.026 199.439,56.596 198.264 C 58.673 193.991,60.424 190.468,61.678 188.037 C 62.470 186.503,62.907 185.348,62.820 185.017 C 62.718 184.629,62.836 184.440,63.249 184.332 C 63.562 184.250,63.818 184.065,63.818 183.920 C 63.818 183.563,67.078 179.706,67.379 179.706 C 67.511 179.706,67.556 179.466,67.479 179.172 C 67.403 178.879,67.456 178.567,67.598 178.479 C 67.740 178.391,67.966 178.031,68.101 177.678 C 68.235 177.325,68.502 177.036,68.694 177.036 C 68.886 177.036,69.255 176.679,69.513 176.242 C 69.770 175.806,70.698 174.726,71.573 173.842 C 72.448 172.959,73.164 172.057,73.164 171.837 C 73.164 171.296,79.422 165.006,80.841 164.120 C 81.465 163.730,81.976 163.232,81.976 163.014 C 81.976 162.796,82.132 162.617,82.323 162.617 C 82.515 162.617,83.171 162.092,83.783 161.450 C 84.395 160.808,85.320 160.082,85.839 159.835 C 86.358 159.589,86.782 159.301,86.782 159.196 C 86.782 159.091,87.049 158.887,87.374 158.742 C 87.700 158.597,88.041 158.178,88.132 157.810 C 88.224 157.443,88.446 157.175,88.626 157.215 C 88.806 157.255,89.262 157.045,89.639 156.748 C 90.017 156.451,90.490 156.208,90.690 156.208 C 90.891 156.208,91.055 156.086,91.055 155.937 C 91.055 155.788,91.505 155.460,92.056 155.209 C 92.607 154.957,93.444 154.449,93.915 154.078 C 95.936 152.492,96.344 152.226,97.021 152.056 C 97.414 151.957,97.801 151.770,97.882 151.639 C 97.963 151.509,98.327 151.402,98.692 151.402 C 99.153 151.402,99.332 151.272,99.277 150.979 C 99.223 150.687,99.570 150.432,100.401 150.156 C 101.061 149.936,101.727 149.597,101.880 149.403 C 102.032 149.209,102.453 149.008,102.814 148.957 C 103.325 148.884,103.456 148.723,103.402 148.234 C 103.353 147.779,103.441 147.646,103.721 147.753 C 104.104 147.900,106.304 147.229,107.076 146.729 C 107.720 146.312,110.355 145.222,111.081 145.072 C 111.449 144.997,112.372 144.647,113.134 144.296 C 113.896 143.945,114.704 143.658,114.929 143.658 C 115.410 143.658,117.469 142.628,117.976 142.134 C 118.170 141.945,118.650 141.722,119.044 141.640 C 119.438 141.557,119.951 141.388,120.184 141.263 C 120.418 141.139,120.760 141.131,120.945 141.245 C 121.376 141.511,123.402 140.904,124.811 140.087 C 125.671 139.588,126.026 139.511,126.493 139.724 C 126.942 139.928,127.252 139.884,127.779 139.538 C 128.161 139.288,129.207 138.965,130.105 138.821 C 131.002 138.676,131.866 138.381,132.024 138.165 C 132.200 137.924,133.085 137.684,134.313 137.543 C 136.151 137.331,137.720 136.858,138.051 136.414 C 138.124 136.316,138.905 136.176,139.786 136.104 C 140.668 136.031,141.929 135.829,142.590 135.653 C 143.251 135.478,144.204 135.347,144.708 135.361 C 145.212 135.376,145.695 135.274,145.781 135.135 C 145.867 134.997,146.747 134.818,147.737 134.739 C 148.727 134.660,149.769 134.472,150.052 134.321 C 150.334 134.169,150.867 134.045,151.235 134.045 C 151.603 134.045,151.974 133.933,152.058 133.797 C 152.245 133.494,154.256 133.647,154.693 133.997 C 155.015 134.255,158.877 133.712,159.496 133.323 C 159.835 133.110,161.179 133.045,169.952 132.822 C 173.542 132.730,175.682 132.570,175.917 132.375 C 176.127 132.201,177.043 132.094,178.061 132.125 C 179.040 132.155,180.200 132.069,180.641 131.934 C 181.732 131.599,182.049 131.595,182.155 131.914 M70.757 149.866 C 70.751 150.357,70.284 151.014,70.084 150.813 C 69.850 150.580,70.200 149.533,70.512 149.533 C 70.649 149.533,70.759 149.683,70.757 149.866 M381.947 155.027 C 382.043 155.277,381.912 155.407,381.567 155.407 C 381.222 155.407,381.041 155.226,381.041 154.882 C 381.041 154.289,381.705 154.396,381.947 155.027 M101.068 182.746 C 100.774 182.974,100.334 183.164,100.089 183.169 C 99.468 183.181,99.446 183.340,99.622 186.577 C 99.778 189.459,99.726 204.433,99.556 205.517 C 99.275 207.316,96.011 208.316,95.060 206.896 C 93.779 204.981,93.658 204.917,91.684 205.103 C 89.608 205.299,87.911 205.867,87.428 206.526 C 86.584 207.682,89.087 212.144,90.904 212.720 C 91.201 212.815,91.753 213.120,92.129 213.398 C 93.644 214.518,99.766 213.997,101.837 212.572 C 102.495 212.119,103.148 211.749,103.287 211.749 C 103.600 211.749,105.486 209.237,105.995 208.144 C 106.288 207.514,106.381 205.289,106.430 197.708 C 106.467 191.983,106.620 187.227,106.808 185.989 C 107.121 183.925,107.117 183.898,106.450 183.231 C 105.585 182.366,101.976 182.040,101.068 182.746 M115.323 183.475 L 114.570 184.211 114.676 193.808 C 114.793 204.318,114.822 204.654,115.821 207.278 C 116.517 209.106,119.011 212.283,119.749 212.283 C 119.939 212.283,120.249 212.469,120.438 212.697 C 121.609 214.107,126.204 215.103,128.794 214.507 C 129.650 214.309,130.444 214.205,130.557 214.275 C 131.192 214.668,134.124 213.112,135.191 211.816 C 135.464 211.485,135.918 211.215,136.201 211.215 C 136.484 211.215,136.716 211.057,136.716 210.865 C 136.716 210.672,137.059 210.260,137.480 209.949 C 138.344 209.311,139.383 207.491,139.392 206.601 C 139.395 206.275,139.625 205.507,139.903 204.895 C 140.181 204.283,140.349 203.723,140.277 203.650 C 140.204 203.578,140.165 201.916,140.189 199.957 C 140.338 187.830,140.391 185.658,140.551 185.158 C 140.840 184.254,140.008 183.810,137.421 183.486 C 133.301 182.970,133.467 182.556,133.486 193.243 C 133.504 203.096,133.311 204.786,132.004 206.227 C 129.302 209.207,124.577 208.830,122.584 205.474 C 121.550 203.731,120.981 192.576,121.601 186.205 C 121.863 183.518,121.666 183.324,118.318 182.974 C 116.092 182.741,116.070 182.744,115.323 183.475 M159.041 183.131 C 158.958 183.265,158.197 183.389,157.349 183.406 C 145.462 183.655,143.953 199.872,155.674 201.417 C 158.303 201.763,161.722 204.672,161.383 206.275 C 160.757 209.243,156.375 210.044,153.339 207.746 C 151.121 206.067,150.729 206.096,148.644 208.091 C 146.867 209.790,146.576 210.425,147.029 211.606 C 147.261 212.211,150.183 214.152,150.860 214.152 C 151.165 214.152,152.099 214.393,152.935 214.686 C 155.570 215.612,159.652 215.254,162.910 213.811 C 164.347 213.175,166.889 210.906,166.889 210.259 C 166.889 209.849,167.668 208.323,167.974 208.134 C 168.292 207.938,168.304 203.353,167.988 202.733 C 167.859 202.478,167.588 201.913,167.388 201.477 C 166.974 200.577,164.685 198.131,164.257 198.131 C 164.102 198.131,163.535 197.832,162.997 197.467 C 162.459 197.102,161.342 196.606,160.515 196.365 C 157.606 195.519,156.699 195.106,155.574 194.119 C 152.018 190.996,157.117 187.678,161.513 190.254 C 163.747 191.563,164.335 191.499,166.164 189.741 C 167.555 188.404,168.266 186.787,167.677 186.301 C 166.084 184.985,163.566 183.809,161.549 183.438 C 160.741 183.290,159.880 183.106,159.635 183.029 C 159.391 182.952,159.123 182.998,159.041 183.131 M173.175 184.926 C 172.562 185.588,172.534 185.755,172.678 187.940 C 172.860 190.718,173.027 190.953,174.633 190.685 C 175.294 190.575,176.255 190.509,176.769 190.538 C 177.283 190.567,178.510 190.605,179.497 190.623 C 182.180 190.670,181.985 189.270,181.722 206.577 C 181.634 212.368,181.685 214.458,181.923 214.757 C 182.367 215.314,187.289 215.602,187.710 215.095 C 188.331 214.347,188.437 196.219,187.842 192.615 C 187.540 190.793,189.322 190.166,193.418 190.653 C 196.893 191.067,197.134 190.930,197.454 188.370 C 197.880 184.960,197.550 184.832,187.850 184.647 C 183.885 184.571,179.107 184.445,177.233 184.367 L 173.825 184.226 173.175 184.926 M205.368 185.245 C 202.765 185.391,202.598 185.708,202.678 190.331 C 202.713 192.345,202.733 194.232,202.723 194.526 C 202.713 194.820,202.691 199.497,202.674 204.920 L 202.643 214.780 203.257 215.358 C 203.877 215.942,208.153 215.968,208.729 215.392 C 208.919 215.202,209.155 201.180,209.131 191.362 C 
209.120 186.382,208.711 184.896,207.408 185.098 C 207.225 185.126,206.307 185.193,205.368 185.245 M218.177 186.284 C 217.873 186.671,217.613 187.302,217.601 187.686 C 217.588 188.070,217.526 192.951,217.462 198.531 C 217.398 204.112,217.302 210.060,217.249 211.749 C 217.115 215.941,217.171 216.021,220.241 216.021 C 223.651 216.021,223.595 216.125,223.506 210.031 C 223.423 204.332,223.424 204.870,223.484 201.287 C 223.535 198.197,223.682 197.863,224.922 198.003 C 225.698 198.091,226.139 198.504,226.858 199.819 C 227.278 200.587,229.449 203.520,230.174 204.299 C 230.679 204.842,231.859 206.995,233.154 209.737 C 233.706 210.907,234.422 212.063,234.745 212.307 C 235.068 212.551,235.463 213.144,235.623 213.626 C 235.943 214.590,236.987 215.498,237.960 215.659 C 244.603 216.760,244.414 216.893,244.520 211.045 C 244.562 208.715,244.659 203.144,244.735 198.665 C 244.812 194.186,244.919 189.723,244.973 188.749 C 245.129 185.984,242.743 184.997,239.188 186.354 L 238.455 186.634 238.460 194.378 C 238.465 202.260,238.383 202.968,237.432 203.333 C 236.913 203.533,233.912 199.914,233.912 199.089 C 233.912 198.843,232.588 197.001,231.959 196.372 C 231.617 196.030,231.046 195.175,230.690 194.471 C 230.333 193.767,229.547 192.530,228.941 191.722 C 228.336 190.915,227.529 189.653,227.148 188.919 C 225.663 186.060,224.818 185.581,221.261 185.581 C 218.845 185.581,218.705 185.613,218.177 186.284 M102.805 230.374 C 101.376 230.543,101.201 230.823,101.206 232.943 C 101.212 235.777,100.513 235.629,112.016 235.230 C 112.457 235.215,113.718 235.277,114.820 235.368 C 117.526 235.593,117.867 235.327,117.785 233.057 C 117.752 232.141,117.606 231.248,117.462 231.074 C 117.098 230.636,105.346 230.074,102.805 230.374 M131.648 231.628 C 131.275 232.609,131.305 234.456,131.709 235.323 L 132.043 236.040 136.716 235.988 C 139.286 235.960,142.669 236.038,144.235 236.163 L 147.081 236.389 147.601 235.351 C 147.887 234.780,148.137 233.772,148.157 233.111 C 148.213 231.240,148.024 231.196,139.325 231.042 L 131.920 230.911 131.648 231.628 M168.106 231.695 C 161.223 231.802,161.276 231.783,161.291 234.154 C 161.302 236.084,161.943 236.991,163.009 236.585 C 163.446 236.419,165.255 236.385,167.771 236.495 C 177.120 236.903,177.988 236.727,178.023 234.409 C 178.064 231.649,177.686 231.545,168.106 231.695 M192.390 232.221 C 191.241 232.526,190.700 233.339,190.853 234.533 C 191.174 237.054,191.727 237.398,195.194 237.231 C 196.295 237.178,199.340 237.083,201.960 237.021 C 207.315 236.894,207.100 236.975,207.343 234.975 C 207.628 232.636,207.280 232.449,202.575 232.420 C 200.498 232.407,197.477 232.326,195.861 232.238 C 194.246 232.151,192.684 232.143,192.390 232.221 M221.016 233.265 C 220.191 233.975,220.205 236.488,221.039 237.180 C 221.750 237.771,236.032 237.763,236.214 237.172 C 236.291 236.921,236.465 236.507,236.602 236.252 C 236.738 235.997,236.848 235.336,236.847 234.783 C 236.844 233.144,236.404 233.042,228.838 232.934 C 225.240 232.883,222.172 232.795,222.021 232.739 C 221.869 232.684,221.417 232.920,221.016 233.265 M253.639 233.319 C 249.981 233.408,249.518 233.670,249.627 235.592 C 249.734 237.489,250.434 237.943,253.433 238.058 C 266.148 238.546,265.833 238.597,265.985 236.021 C 266.146 233.281,265.062 233.043,253.639 233.319 M147.444 251.562 C 144.976 252.031,140.827 254.468,139.460 256.251 C 139.052 256.783,138.508 257.441,138.251 257.714 C 137.994 257.988,137.784 258.367,137.784 258.558 C 137.784 258.749,137.670 259.019,137.530 259.159 C 136.067 260.625,135.144 268.183,136.037 271.389 C 137.024 274.937,139.929 279.573,141.164 279.573 C 141.361 279.573,141.741 279.783,142.008 280.040 C 145.082 282.998,155.196 284.478,158.847 282.504 C 159.085 282.375,159.847 282.197,160.541 282.108 C 161.235 282.018,161.873 281.832,161.959 281.694 C 162.044 281.555,162.329 281.442,162.591 281.442 C 162.853 281.442,163.286 281.202,163.551 280.908 C 163.817 280.614,164.270 280.374,164.558 280.374 C 165.044 280.374,165.069 280.247,164.897 278.648 C 164.664 276.469,164.671 269.891,164.909 267.397 L 165.091 265.502 163.834 264.894 C 162.041 264.026,153.115 263.731,152.830 264.530 C 152.734 264.800,152.494 265.210,152.295 265.442 C 150.747 267.255,152.824 270.946,155.208 270.618 C 159.391 270.043,159.340 275.710,155.154 276.608 C 151.297 277.435,148.187 276.710,145.675 274.400 C 145.096 273.867,144.525 273.431,144.407 273.431 C 144.289 273.431,144.192 273.249,144.192 273.027 C 144.192 272.805,144.087 272.414,143.959 272.159 C 143.830 271.904,143.477 271.211,143.173 270.619 C 142.466 269.239,142.347 264.619,143.005 264.073 C 143.224 263.892,143.337 263.535,143.256 263.280 C 142.666 261.419,149.435 256.743,151.797 257.380 C 151.940 257.419,152.721 257.568,153.532 257.712 C 154.343 257.856,155.385 258.147,155.848 258.359 C 156.311 258.571,156.785 258.745,156.902 258.745 C 157.019 258.745,157.560 259.054,158.105 259.432 C 159.534 260.422,162.025 259.452,163.885 257.181 C 166.450 254.049,154.978 250.128,147.444 251.562 M184.093 252.074 C 183.349 252.208,182.388 252.502,181.957 252.726 C 181.527 252.951,180.957 253.135,180.691 253.136 C 178.191 253.144,173.654 257.657,172.500 261.282 C 172.313 261.869,172.040 262.501,171.894 262.685 C 171.464 263.227,171.232 270.154,171.593 271.696 C 172.376 275.046,175.169 279.255,177.570 280.705 C 178.084 281.015,179.124 281.672,179.880 282.165 C 181.638 283.310,184.002 283.769,187.850 283.712 C 193.113 283.633,195.778 282.459,199.534 278.565 C 201.165 276.874,201.297 276.662,202.576 273.702 C 202.800 273.186,203.088 272.562,203.217 272.316 C 203.677 271.438,203.629 264.292,203.158 263.551 C 202.924 263.184,202.656 262.362,202.561 261.724 C 201.639 255.512,192.248 250.605,184.093 252.074 M218.291 252.632 C 215.303 253.055,211.738 255.221,210.471 257.382 C 209.569 258.922,209.217 264.493,209.983 265.128 C 210.220 265.325,210.414 265.651,210.414 265.853 C 210.414 267.162,214.306 269.678,218.024 270.773 C 221.467 271.787,222.960 273.495,222.736 276.163 C 222.616 277.593,217.650 278.393,216.161 277.222 C 215.751 276.900,215.289 276.636,215.135 276.636 C 214.980 276.636,214.606 276.403,214.303 276.118 C 213.641 275.497,211.923 275.617,211.078 276.344 C 209.350 277.830,208.276 279.806,208.779 280.572 C 209.153 281.141,212.257 283.044,212.811 283.044 C 213.139 283.044,214.086 283.213,214.915 283.420 C 220.262 284.752,225.142 283.384,227.839 279.796 C 228.964 278.300,229.089 278.073,229.097 277.519 C 229.102 277.197,229.214 276.867,229.347 276.785 C 229.630 276.610,229.548 272.059,229.240 270.895 C 229.029 270.094,226.198 267.023,225.672 267.023 C 225.519 267.023,224.259 266.482,222.873 265.821 C 221.487 265.160,220.172 264.619,219.950 264.619 C 219.728 264.619,218.921 264.199,218.158 263.685 C 217.394 263.171,216.661 262.750,216.529 262.750 C 215.717 262.750,216.782 260.068,217.914 259.262 C 219.439 258.176,222.508 258.570,224.166 260.063 C 225.149 260.950,225.630 260.772,228.086 258.609 C 229.942 256.974,229.992 256.185,228.319 254.936 C 227.584 254.387,226.875 253.939,226.743 253.939 C 226.611 253.939,225.962 253.637,225.302 253.268 C 223.931 252.501,221.056 252.240,218.291 252.632 M244.860 253.045 C 241.639 253.534,236.849 256.774,236.849 258.462 C 236.849 258.706,236.699 259.055,236.515 259.239 C 235.855 259.899,236.090 264.565,236.854 265.975 C 237.964 268.023,240.233 269.621,243.642 270.756 C 244.602 271.075,245.457 271.447,245.540 271.583 C 245.624 271.718,245.884 271.829,246.119 271.829 C 247.151 271.829,249.399 273.984,249.399 274.973 C 249.399 278.112,244.367 279.131,241.194 276.635 C 239.476 275.284,235.295 277.670,235.256 280.022 C 235.240 281.053,238.698 283.463,240.473 283.658 C 240.916 283.706,241.394 283.813,241.534 283.894 C 242.104 284.225,245.117 284.365,246.996 284.148 C 257.153 282.977,259.898 269.738,250.601 266.763 C 250.013 266.575,249.348 266.261,249.123 266.065 C 248.898 265.870,247.857 265.419,246.809 265.065 C 244.320 264.223,243.345 263.507,243.002 262.272 C 242.600 260.827,242.646 260.630,243.457 260.322 C 243.861 260.168,244.374 259.877,244.598 259.675 C 245.549 258.815,248.370 258.876,250.303 259.798 C 251.284 260.267,252.257 260.612,252.464 260.565 C 253.286 260.381,256.071 257.807,256.073 257.229 C 256.075 256.510,253.591 253.939,252.894 253.939 C 252.619 253.939,251.871 253.701,251.231 253.410 C 250.115 252.904,246.971 252.724,244.860 253.045 M264.495 254.544 L 263.589 255.407 263.445 268.699 C 263.262 285.554,262.991 284.490,267.305 283.859 C 268.491 283.686,269.784 283.605,270.178 283.681 C 270.572 283.756,273.658 283.897,277.036 283.993 C 280.414 284.089,283.254 284.214,283.348 284.270 C 284.360 284.883,284.694 280.255,283.721 279.098 L 282.997 278.238 277.162 278.238 C 273.334 278.238,271.266 278.140,271.151 277.954 C 271.055 277.798,270.701 277.566,270.364 277.438 C 269.805 277.225,269.742 277.009,269.650 274.985 C 269.486 271.370,270.091 271.093,277.152 271.553 C 282.601 271.909,282.970 271.807,282.996 269.953 C 283.004 269.345,283.083 268.522,283.170 268.124 C 283.556 266.367,281.387 265.713,275.116 265.696 C 273.244 265.691,271.791 265.574,271.696 265.421 C 271.605 265.274,271.316 265.154,271.054 265.154 C 269.266 265.154,269.158 261.420,270.914 260.335 C 271.767 259.808,272.051 259.791,277.230 259.958 C 283.828 260.171,283.746 260.204,284.012 257.245 C 284.299 254.040,284.628 254.157,274.932 254.035 C 270.508 253.979,266.555 253.877,266.146 253.807 C 265.572 253.710,265.195 253.879,264.495 254.544 M298.131 254.042 C 295.475 254.633,292.871 256.544,291.899 258.616 C 291.556 259.348,291.087 260.321,290.857 260.778 C 290.386 261.714,290.517 265.523,291.037 266.044 C 291.194 266.200,291.322 266.520,291.322 266.755 C 291.322 267.721,296.217 271.295,297.539 271.295 C 297.806 271.295,298.408 271.494,298.877 271.736 C 299.346 271.979,299.999 272.189,300.326 272.204 C 301.719 272.264,303.605 274.238,303.605 275.635 C 303.605 279.193,300.409 280.261,296.218 278.104 C 293.167 276.534,292.908 276.551,291.137 278.438 C 289.858 279.801,289.712 280.074,289.829 280.869 C 289.960 281.747,291.596 283.541,
292.290 283.567 C 292.455 283.573,293.236 283.864,294.026 284.212 C 299.322 286.553,308.089 284.015,309.130 279.840 C 309.222 279.473,309.447 278.932,309.630 278.638 C 311.406 275.788,309.282 269.764,305.964 268.243 C 305.474 268.018,304.893 267.722,304.673 267.584 C 304.110 267.231,301.835 266.227,300.351 265.676 C 296.997 264.432,296.146 262.651,298.061 260.883 C 299.852 259.229,301.193 259.180,304.778 260.639 L 306.646 261.399 307.595 260.693 C 308.118 260.305,308.760 259.768,309.022 259.500 C 309.285 259.232,309.676 259.012,309.890 259.012 C 310.553 259.012,310.330 257.814,309.464 256.712 C 307.616 254.364,302.308 253.113,298.131 254.042 M392.790 256.475 C 392.790 256.992,392.266 257.260,391.924 256.917 C 391.721 256.714,391.736 256.513,391.977 256.223 C 392.354 255.769,392.790 255.905,392.790 256.475 M191.500 258.817 C 194.756 260.740,196.266 262.960,196.811 266.624 L 197.151 268.905 196.239 271.190 C 193.053 279.174,182.573 279.491,179.011 271.710 C 178.147 269.824,177.779 265.162,178.435 264.418 C 178.661 264.162,178.934 263.537,179.042 263.030 C 179.274 261.941,182.048 259.012,182.848 259.012 C 183.131 259.012,183.576 258.775,183.838 258.485 C 184.610 257.633,189.881 257.862,191.500 258.817 M385.848 324.050 C 385.848 324.483,385.244 325.234,384.895 325.234 C 384.345 325.234,384.084 324.432,384.541 324.143 C 384.957 323.879,385.848 323.816,385.848 324.050 M360.853 371.537 C 361.049 372.285,360.916 372.331,359.971 371.842 C 359.079 371.380,358.980 371.166,359.447 370.700 C 359.841 370.306,360.659 370.792,360.853 371.537 M396.796 395.815 C 396.796 396.418,395.496 397.472,395.163 397.139 C 394.954 396.930,395.026 396.800,395.420 396.675 C 395.721 396.580,396.042 396.267,396.133 395.981 C 396.319 395.393,396.796 395.274,396.796 395.815 M391.455 405.874 C 391.455 406.021,391.275 406.142,391.055 406.142 C 390.834 406.142,390.567 406.151,390.461 406.162 C 390.354 406.173,390.224 406.052,390.171 405.895 C 390.119 405.737,390.386 405.607,390.765 405.607 C 391.145 405.607,391.455 405.728,391.455 405.874 M388.318 407.107 C 388.860 407.299,388.922 407.767,388.465 408.224 C 388.023 408.666,387.803 408.626,387.645 408.077 C 387.571 407.820,387.418 407.383,387.304 407.106 C 387.149 406.727,387.191 406.645,387.474 406.772 C 387.681 406.866,388.061 407.016,388.318 407.107 M386.382 411.015 C 386.382 411.125,386.274 411.215,386.143 411.215 C 386.011 411.215,385.621 411.513,385.275 411.878 C 384.573 412.618,384.109 412.756,384.339 412.158 C 384.422 411.942,384.374 411.695,384.234 411.608 C 383.583 411.206,384.049 410.814,385.180 410.814 C 385.841 410.814,386.382 410.905,386.382 411.015 M383.445 412.121 C 383.445 412.496,382.677 412.939,382.439 412.701 C 382.368 412.631,382.382 412.388,382.469 412.161 C 382.666 411.648,383.445 411.616,383.445 412.121 M383.445 414.294 C 383.445 414.519,383.234 414.780,382.977 414.875 C 382.720 414.969,382.414 415.206,382.296 415.400 C 382.082 415.756,381.260 415.884,380.981 415.605 C 380.566 415.190,381.143 414.376,381.767 414.496 C 382.168 414.572,382.473 414.479,382.560 414.253 C 382.751 413.753,383.445 413.785,383.445 414.294 M376.528 419.123 C 376.837 419.496,376.818 419.541,376.382 419.457 C 376.105 419.403,375.829 419.209,375.768 419.025 C 375.609 418.549,376.104 418.613,376.528 419.123 M374.633 420.828 C 374.633 420.975,374.393 421.095,374.099 421.095 C 373.805 421.095,373.565 420.975,373.565 420.828 C 373.565 420.681,373.805 420.561,374.099 420.561 C 374.393 420.561,374.633 420.681,374.633 420.828 M373.670 422.319 C 373.770 422.579,373.710 422.701,373.515 422.636 C 373.116 422.503,372.896 421.896,373.247 421.896 C 373.390 421.896,373.581 422.086,373.670 422.319 M359.680 429.922 C 359.680 430.225,359.559 430.398,359.413 430.307 C 359.266 430.216,359.146 429.969,359.146 429.757 C 359.146 429.546,359.266 429.372,359.413 429.372 C 359.559 429.372,359.680 429.620,359.680 429.922 M396.862 439.914 C 396.791 440.284,396.627 440.587,396.498 440.587 C 396.228 440.587,396.174 439.429,396.432 439.171 C 396.759 438.844,396.990 439.244,396.862 439.914 M385.314 440.705 C 385.314 441.130,384.829 441.527,384.595 441.293 C 384.376 441.074,384.719 440.320,385.038 440.320 C 385.190 440.320,385.314 440.494,385.314 440.705 M308.678 440.988 C 308.678 441.208,308.456 441.389,308.185 441.389 C 307.563 441.389,306.167 442.076,305.736 442.596 C 305.272 443.155,304.991 443.086,304.892 442.390 C 304.796 441.718,305.641 441.121,306.690 441.121 C 307.032 441.121,307.386 441.001,307.477 440.854 C 307.735 440.437,308.678 440.542,308.678 440.988 M375.182 445.279 C 375.374 445.509,375.735 445.644,375.987 445.579 C 377.218 445.257,377.158 446.458,375.904 447.241 C 375.473 447.510,375.318 447.482,374.992 447.080 C 374.733 446.760,374.555 446.701,374.469 446.905 C 373.975 448.071,373.036 448.492,373.026 447.552 C 373.021 447.053,371.755 445.779,371.509 446.026 C 371.415 446.119,371.499 446.496,371.696 446.862 C 372.152 447.715,371.972 447.873,370.569 447.854 C 369.080 447.833,368.491 448.011,368.491 448.483 C 368.491 448.693,368.297 448.865,368.059 448.865 C 367.682 448.865,365.115 449.622,363.551 450.194 C 363.230 450.312,362.787 450.239,362.439 450.012 C 361.975 449.709,361.756 449.699,361.339 449.959 C 360.804 450.294,359.947 450.139,359.947 449.708 C 359.947 449.435,361.228 449.132,362.383 449.132 C 362.873 449.132,363.151 448.993,363.151 448.749 C 363.151 448.511,363.481 448.333,364.019 448.281 C 364.797 448.206,364.887 448.110,364.896 447.343 C 364.908 446.199,366.743 445.310,367.284 446.185 C 367.361 446.310,367.654 446.352,367.935 446.278 C 368.282 446.187,368.591 446.366,368.898 446.835 C 369.417 447.627,369.826 447.522,369.826 446.595 C 369.826 445.613,371.161 445.313,372.976 445.887 C 373.784 446.142,373.877 446.111,374.105 445.512 C 374.392 444.756,374.694 444.691,375.182 445.279 M381.543 447.218 C 381.163 448.003,381.159 448.004,380.879 447.411 C 380.444 446.489,380.910 445.415,381.492 445.997 C 381.876 446.381,381.881 446.520,381.543 447.218 M379.040 449.935 C 379.131 450.083,379.013 450.278,378.777 450.369 C 378.266 450.565,377.981 450.349,378.227 449.951 C 378.448 449.592,378.823 449.585,379.040 449.935 M356.475 451.535 C 356.475 451.682,356.295 451.802,356.075 451.802 C 355.854 451.802,355.674 451.682,355.674 451.535 C 355.674 451.389,355.854 451.268,356.075 451.268 C 356.295 451.268,356.475 451.389,356.475 451.535 M397.160 462.008 C 397.060 462.169,396.906 462.131,396.766 461.911 C 396.401 461.335,396.492 461.052,396.926 461.413 C 397.145 461.594,397.250 461.862,397.160 462.008 M394.660 462.201 C 394.660 462.561,394.173 462.811,393.854 462.614 C 393.705 462.522,393.652 462.335,393.736 462.198 C 393.937 461.874,394.660 461.876,394.660 462.201 M383.864 462.513 C 384.094 462.886,383.399 463.345,383.083 463.030 C 382.826 462.773,383.074 462.216,383.445 462.216 C 383.574 462.216,383.763 462.350,383.864 462.513 M305.998 462.872 C 306.473 463.444,306.101 463.818,305.058 463.818 C 304.043 463.818,303.795 463.244,304.606 462.772 C 305.256 462.393,305.623 462.419,305.998 462.872 M303.359 464.307 C 302.611 464.417,302.290 464.136,302.803 463.819 C 303.042 463.671,303.332 463.701,303.573 463.900 C 303.899 464.169,303.866 464.233,303.359 464.307 M381.308 463.952 C 381.308 464.172,381.188 464.352,381.041 464.352 C 380.895 464.352,380.774 464.172,380.774 463.952 C 380.774 463.732,380.895 463.551,381.041 463.551 C 381.188 463.551,381.308 463.732,381.308 463.952 M358.879 464.486 C 358.879 464.706,358.702 464.887,358.486 464.887 C 358.247 464.887,358.154 464.730,358.248 464.486 C 358.332 464.266,358.509 464.085,358.640 464.085 C 358.771 464.085,358.879 464.266,358.879 464.486 M381.987 464.904 C 382.084 465.061,381.911 465.255,381.602 465.336 C 381.294 465.417,381.041 465.649,381.041 465.852 C 381.041 466.360,380.335 466.319,380.135 465.799 C 379.905 465.200,379.915 465.188,380.507 465.343 C 380.879 465.440,381.041 465.351,381.041 465.051 C 381.041 464.568,381.715 464.464,381.987 464.904 M383.979 465.436 C 383.979 465.886,383.873 466.188,383.745 466.109 C 383.616 466.029,383.511 465.662,383.511 465.292 C 383.511 464.922,383.616 464.619,383.745 464.619 C 383.873 464.619,383.979 464.987,383.979 465.436 M298.531 465.271 C 298.531 465.869,298.052 466.023,297.465 465.612 C 296.845 465.178,297.023 464.887,297.908 464.887 C 298.273 464.887,298.531 465.046,298.531 465.271 M295.861 465.666 C 295.861 465.801,295.934 466.101,296.023 466.333 C 296.151 466.667,295.996 466.756,295.289 466.757 C 294.796 466.758,294.044 466.941,293.618 467.163 C 292.782 467.599,292.508 467.529,292.735 466.938 C 292.814 466.733,293.374 466.485,293.979 466.388 C 294.585 466.291,295.149 466.034,295.232 465.816 C 295.399 465.383,295.861 465.273,295.861 465.666 M385.458 467.040 C 385.555 467.197,385.424 467.479,385.166 467.668 C 384.909 467.856,384.784 468.148,384.888 468.317 C 385.142 468.728,386.036 468.710,386.205 468.291 C 386.288 468.084,386.348 468.128,386.361 468.405 C 386.388 468.994,385.673 469.693,385.043 469.693 C 384.769 469.693,384.470 469.813,384.379 469.960 C 384.014 470.551,383.382 470.244,383.554 469.559 C 383.651 469.174,383.607 468.892,383.450 468.892 C 383.170 468.892,383.082 469.373,383.167 470.428 C 383.223 471.116,382.498 471.523,382.038 471.063 C 381.469 470.495,379.172 470.680,379.172 471.295 C 379.172 471.953,378.939 471.976,378.485 471.362 C 378.209 470.987,378.073 470.961,377.802 471.228 C 377.297 471.726,376.769 471.632,376.769 471.044 C 376.769 470.759,376.647 470.450,376.498 470.358 C 376.032 470.070,376.498 469.693,377.319 469.693 C 378.431 469.693,379.440 468.680,378.796 468.209 C 378.189 467.765,378.538 467.634,379.840 467.816 C 380.862 467.959,380.882 467.980,380.307 468.305 C 379.977 468.491,379.706 468.890,379.706 469.190 C 379.706 469.645,379.887 469.548,380.790 468.609 C 381.479 467.892,381.966 467.574,382.129 467.736 C 382.480 468.088,384.780 467.532,384.780 467.095 C 384.780 466.683,385.215 466.647,385.458 467.040 M291.983 467.458 C 292.441 467.634,292.095 467.922,290.613 468.597
 C 290.297 468.741,289.963 468.982,289.870 469.132 C 289.758 469.313,289.472 469.318,289.025 469.149 C 288.586 468.982,288.175 468.985,287.851 469.159 C 287.003 469.613,286.657 469.473,287.184 468.891 C 287.566 468.468,287.916 468.378,288.841 468.465 C 289.801 468.554,290.140 468.458,290.707 467.932 C 291.494 467.203,291.405 467.236,291.983 467.458 M375.546 467.986 C 376.081 468.191,376.096 468.625,375.567 468.625 C 375.347 468.625,375.158 468.775,375.148 468.959 C 375.138 469.142,375.026 469.052,374.900 468.758 C 374.486 467.795,374.623 467.632,375.546 467.986 M395.194 468.641 C 395.194 468.943,395.073 469.116,394.927 469.025 C 394.780 468.935,394.660 468.687,394.660 468.476 C 394.660 468.264,394.780 468.091,394.927 468.091 C 395.073 468.091,395.194 468.338,395.194 468.641 M372.189 469.159 C 371.877 470.055,371.561 470.340,371.157 470.090 C 370.992 469.989,371.124 469.620,371.491 469.155 C 372.278 468.157,372.538 468.158,372.189 469.159 M381.509 468.558 C 381.252 468.616,381.041 468.823,381.041 469.016 C 381.041 469.513,381.889 469.781,382.151 469.368 C 382.578 468.695,382.322 468.373,381.509 468.558 M356.356 469.059 C 357.124 469.562,356.817 470.266,355.931 470.035 C 355.526 469.929,355.407 470.033,355.407 470.492 C 355.407 470.992,355.513 471.060,356.075 470.918 C 356.567 470.795,356.742 470.857,356.742 471.156 C 356.742 471.640,355.974 471.676,355.395 471.220 C 353.461 469.696,354.334 467.734,356.356 469.059 M373.940 469.515 C 373.692 470.310,373.200 470.572,372.996 470.017 C 372.809 469.510,373.497 468.551,373.878 468.787 C 374.012 468.869,374.039 469.197,373.940 469.515 M286.907 470.241 C 286.809 470.400,286.552 470.390,286.225 470.214 C 285.936 470.060,285.770 469.819,285.857 469.679 C 285.954 469.520,286.212 469.530,286.539 469.706 C 286.828 469.860,286.994 470.101,286.907 470.241 M285.035 470.743 C 285.233 471.062,284.730 471.379,284.375 471.159 C 284.076 470.974,284.272 470.494,284.646 470.494 C 284.776 470.494,284.951 470.606,285.035 470.743 M364.219 470.732 C 364.219 470.864,364.039 471.040,363.818 471.125 C 363.411 471.281,363.272 470.996,363.596 470.672 C 363.851 470.417,364.219 470.452,364.219 470.732 " stroke="none" fill="rgba(255,255,255,0)" fill-opacity="0.0" fill-rule="evenodd"></path></g></svg>